<svg width="26" height="26" viewBox="0 0 26 26" fill="none" xmlns="http://www.w3.org/2000/svg">
<circle cx="13" cy="13" r="13" fill="white"/>
<path fill-rule="evenodd" clip-rule="evenodd" d="M11.1835 4.54907C16.6506 3.24896 21.4177 8.01619 20.1176 13.4833C19.5999 15.6977 17.9658 17.5647 15.8574 18.4423L15.1517 17.7967C14.5323 17.2223 13.7164 17.0003 13.0016 17.0003C12.2848 17.0003 11.4693 17.2233 10.8483 17.7945L10.1546 18.4291C7.00319 17.1051 4.98022 13.6461 5.88306 9.84958C6.51645 7.28271 8.61661 5.18245 11.1835 4.54907ZM11.6439 18.8749C11.6436 18.8748 11.6432 18.8748 11.6429 18.8747L11.7498 18.7769C12.0642 18.487 12.5187 18.3393 12.9749 18.3338C13.4493 18.3278 13.9258 18.4755 14.2489 18.7769L15.31 19.7475C16.1574 20.5174 15.4058 21.6669 14.0573 21.6669H11.9426C10.5941 21.6669 9.84993 20.5229 10.6899 19.7475L11.6439 18.8749ZM14.334 11.6665C14.334 12.4028 13.7371 12.9998 13.0007 12.9998C12.2643 12.9998 11.6674 12.4028 11.6674 11.6665C11.6674 10.9301 12.2643 10.3331 13.0007 10.3331C13.7371 10.3331 14.334 10.9301 14.334 11.6665ZM15.668 11.6671C15.668 13.1399 14.4741 14.3338 13.0014 14.3338C11.5286 14.3338 10.3347 13.1399 10.3347 11.6671C10.3347 10.1943 11.5286 9.00044 13.0014 9.00044C14.4741 9.00044 15.668 10.1943 15.668 11.6671ZM17.0014 11.6671C17.0014 13.8762 15.2105 15.6671 13.0014 15.6671C10.7922 15.6671 9.00137 13.8762 9.00137 11.6671C9.00137 9.45797 10.7922 7.66711 13.0014 7.66711C15.2105 7.66711 17.0014 9.45797 17.0014 11.6671ZM17.6675 8.33377C17.6675 8.70196 17.369 9.00044 17.0008 9.00044C16.6327 9.00044 16.3342 8.70196 16.3342 8.33377C16.3342 7.96558 16.6327 7.66711 17.0008 7.66711C17.369 7.66711 17.6675 7.96558 17.6675 8.33377Z" fill="#8265F6"/>
</svg>
