<svg width="26" height="26" viewBox="0 0 26 26" fill="none" xmlns="http://www.w3.org/2000/svg">
<circle cx="13" cy="13" r="13" fill="white"/>
<path fill-rule="evenodd" clip-rule="evenodd" d="M17.6663 14.1853C17.6663 16.4772 15.578 18.3335 12.9997 18.3335C10.4213 18.3335 8.33301 16.4772 8.33301 14.1853V8.48164C8.33301 6.18979 10.4213 4.3335 12.9997 4.3335C15.578 4.3335 17.6663 6.18979 17.6663 8.48164V14.1853ZM10.9473 9.81995C12.2922 9.32884 13.757 9.32884 15.1019 9.81995C15.4261 9.93835 15.7849 9.77149 15.9033 9.44725C16.0217 9.12302 15.8549 8.76419 15.5306 8.64579C13.9089 8.05356 12.1403 8.05356 10.5185 8.64579C10.1943 8.76419 10.0274 9.12302 10.1458 9.44725C10.2642 9.77149 10.6231 9.93835 10.9473 9.81995ZM14.2918 12.3371C13.4003 12.0919 12.4564 12.0919 11.5649 12.3371C11.2321 12.4286 10.8881 12.233 10.7966 11.9002C10.705 11.5673 10.9006 11.2233 11.2335 11.1318C12.3419 10.827 13.5148 10.827 14.6232 11.1318C14.9561 11.2233 15.1517 11.5673 15.0601 11.9002C14.9686 12.233 14.6246 12.4286 14.2918 12.3371ZM6.33366 11.6672C6.70185 11.6672 7.00033 11.9656 7.00033 12.3338V13.7884C7.00033 17.0194 9.67937 19.6672 13.0003 19.6672C16.3213 19.6672 19.0003 17.0194 19.0003 13.7884V12.3338C19.0003 11.9656 19.2988 11.6672 19.667 11.6672C20.0352 11.6672 20.3337 11.9656 20.3337 12.3338V13.7884C20.3337 17.5568 17.3913 20.6397 13.6663 20.971C13.6665 20.9759 13.6666 20.9808 13.6667 20.9857C13.6668 20.9905 13.6669 20.9953 13.6669 21.0002L13.6669 23.0002C13.6669 23.3684 13.3684 23.6668 13.0002 23.6668C12.632 23.6668 12.3336 23.3684 12.3336 23.0002V21.0002C12.3336 20.9904 12.3338 20.9807 12.3342 20.971C8.60923 20.6396 5.66699 17.5567 5.66699 13.7884V12.3338C5.66699 11.9656 5.96547 11.6672 6.33366 11.6672Z" fill="#DDDDDD"/>
</svg>
