<svg width="26" height="28" viewBox="0 0 26 28" fill="none" xmlns="http://www.w3.org/2000/svg">
<path d="M20.5997 18.2471V12.4832C20.5997 6.79402 16.329 2.16797 11.08 2.16797C5.83097 2.16797 1.55713 6.79402 1.55713 12.4832V18.2471H20.5997Z" fill="#333333"/>
<path d="M13.2236 2.65622C12.8642 2.52299 12.4932 2.41937 12.1105 2.36016C10.9975 2.18252 9.93074 2.28614 8.93359 2.65622C9.26984 1.56078 10.1047 0.791016 11.0786 0.791016C12.0526 0.791016 12.8874 1.56078 13.2236 2.65622Z" fill="#333333"/>
<path d="M21.2932 19.918H1.06471C0.554089 19.918 0.138672 20.3613 0.138672 20.9063C0.138672 21.4512 0.554089 21.8946 1.06471 21.8946H7.01036C7.25846 24.1175 9.03263 25.8478 11.179 25.8478C13.3253 25.8478 15.1023 24.1175 15.3475 21.8946H21.2932C21.8038 21.8946 22.2192 21.4512 22.2192 20.9063C22.2192 20.3613 21.8038 19.918 21.2932 19.918Z" fill="#333333"/>
<path d="M22.2072 18.9989L17.5566 23.6496C17.3727 23.8335 17.2019 24.175 17.1625 24.4246L16.9129 26.1981C16.8209 26.8418 17.2676 27.2885 17.9113 27.1966L19.6848 26.947C19.9344 26.9075 20.2892 26.7368 20.46 26.5529L25.1105 21.9023C25.9119 21.1009 26.2929 20.1681 25.1105 18.9857C23.9413 17.8165 23.0086 18.1975 22.2072 18.9989Z" fill="#333333"/>
</svg>
