<svg width="26" height="26" viewBox="0 0 26 26" fill="none" xmlns="http://www.w3.org/2000/svg">
<path fill-rule="evenodd" clip-rule="evenodd" d="M13 25.5C10.75 25.5 8.5 24.875 6.625 23.75L2.60373 24.8989C1.67366 25.1647 0.807149 24.3187 1.05055 23.3825L2.125 19.25C1.125 17.375 0.5 15.25 0.5 13C0.5 6.125 6.125 0.5 13 0.5C19.875 0.5 25.5 6.125 25.5 13C25.5 19.875 19.875 25.5 13 25.5ZM18.4842 17.1737C18.5799 16.9712 18.625 16.7631 18.625 16.5606C18.625 16.4031 18.5912 16.2625 18.5349 16.1219C18.4729 15.9812 18.3715 15.8631 18.225 15.7619L16.3604 14.44C16.2195 14.3444 16.0899 14.2712 15.966 14.2206C15.8421 14.17 15.7294 14.1475 15.6224 14.1475C15.4815 14.1475 15.352 14.1869 15.2224 14.2656C15.0928 14.3331 14.9576 14.44 14.8168 14.5806L14.3886 15.0025C14.3267 15.0644 14.2534 15.0981 14.1577 15.0981C14.107 15.0981 14.0619 15.0925 14.0168 15.0756C13.9987 15.0679 13.9818 15.0601 13.9661 15.0529C13.9476 15.0445 13.9307 15.0367 13.9154 15.0306C13.7239 14.9294 13.4817 14.7606 13.1887 14.5131C12.8901 14.26 12.5972 13.9844 12.293 13.6863C12.0001 13.3881 11.7297 13.09 11.4762 12.7975C11.2283 12.505 11.0536 12.2631 10.9522 12.0775C10.9461 12.0592 10.9384 12.041 10.9299 12.0209C10.9227 12.0039 10.9149 11.9856 10.9072 11.965C10.8959 11.92 10.8903 11.8806 10.8903 11.8356C10.8903 11.7456 10.9184 11.6725 10.9804 11.6106L11.4086 11.1663C11.5438 11.0312 11.6508 10.8962 11.724 10.7669C11.8029 10.6375 11.8423 10.5025 11.8423 10.3675C11.8423 10.2606 11.8142 10.1425 11.7635 10.0244C11.7128 9.90063 11.6395 9.77125 11.5381 9.63062L10.2312 7.79125C10.1298 7.645 10.0002 7.54375 9.85372 7.47625C9.71288 7.40875 9.55515 7.375 9.39741 7.375C8.98053 7.375 8.58619 7.54938 8.22565 7.90375C7.92708 8.185 7.71301 8.5 7.5778 8.84313C7.4426 9.18062 7.375 9.54625 7.375 9.92875C7.375 10.5138 7.5102 11.1269 7.78061 11.7681C8.05101 12.4038 8.42282 13.045 8.88476 13.6863C9.35234 14.3275 9.87625 14.9406 10.4565 15.5256C11.0424 16.105 11.6564 16.6281 12.3043 17.1006C12.9465 17.5675 13.5943 17.9388 14.2422 18.2144C14.89 18.49 15.5041 18.625 16.0787 18.625C16.473 18.625 16.8392 18.5519 17.1772 18.4113C17.5208 18.2706 17.8251 18.0513 18.1011 17.7475C18.2645 17.5675 18.3884 17.3763 18.4842 17.1737Z" fill="#333333"/>
</svg>
