<svg width="18" height="16" viewBox="0 0 18 16" fill="none" xmlns="http://www.w3.org/2000/svg">
<path fill-rule="evenodd" clip-rule="evenodd" d="M18 13.5V4.77273C18 3.66816 17.1046 2.77273 16 2.77273H9.40413C8.82938 2.77273 8.2824 2.52546 7.90271 2.09398L7.0973 1.17874C6.7176 0.747269 6.17062 0.5 5.59587 0.5H2C0.895431 0.5 0 1.39543 0 2.5V2.77273V13.5C0 14.6046 0.89543 15.5 2 15.5H16C17.1046 15.5 18 14.6046 18 13.5ZM9 6.4998C7.89543 6.4998 7 7.39524 7 8.4998C7 9.60437 7.89543 10.4998 9 10.4998C10.1046 10.4998 11 9.60437 11 8.4998C11 7.39524 10.1046 6.4998 9 6.4998ZM5 8.4998C5 6.29067 6.79086 4.4998 9 4.4998C11.2091 4.4998 13 6.29067 13 8.4998C13 10.7089 11.2091 12.4998 9 12.4998C6.79086 12.4998 5 10.7089 5 8.4998ZM3 2.4998C2.44772 2.4998 2 2.94752 2 3.4998C2 4.05209 2.44772 4.4998 3 4.4998H5C5.55228 4.4998 6 4.05209 6 3.4998C6 2.94752 5.55228 2.4998 5 2.4998H3Z" fill="white"/>
</svg>
