<svg width="16" height="18" viewBox="0 0 16 18" fill="none" xmlns="http://www.w3.org/2000/svg">
<path fill-rule="evenodd" clip-rule="evenodd" d="M6.18349 0.549067C11.6506 -0.751037 16.4177 4.01619 15.1176 9.4833C14.5999 11.6977 12.9658 13.5647 10.8574 14.4423L10.1517 13.7967C9.53234 13.2223 8.71638 13.0003 8.00155 13.0003C7.28477 13.0003 6.4693 13.2233 5.84828 13.7945L5.15463 14.4291C2.00319 13.1051 -0.0197787 9.64612 0.88306 5.84958C1.51645 3.28271 3.61661 1.18245 6.18349 0.549067ZM6.64388 14.8749C6.64356 14.8748 6.64323 14.8748 6.64291 14.8747L6.74982 14.7769C7.06423 14.487 7.51866 14.3393 7.97489 14.3338C8.44929 14.3278 8.92577 14.4755 9.24894 14.7769L10.31 15.7475C11.1574 16.5174 10.4058 17.6669 9.05735 17.6669H6.94259C5.59415 17.6669 4.84993 16.5229 5.68994 15.7475L6.64388 14.8749ZM9.33405 7.66646C9.33405 8.40283 8.7371 8.99979 8.00072 8.99979C7.26434 8.99979 6.66738 8.40283 6.66738 7.66646C6.66738 6.93008 7.26434 6.33312 8.00072 6.33312C8.7371 6.33312 9.33405 6.93008 9.33405 7.66646ZM10.668 7.66711C10.668 9.13987 9.47413 10.3338 8.00137 10.3338C6.52861 10.3338 5.3347 9.13987 5.3347 7.66711C5.3347 6.19435 6.52861 5.00044 8.00137 5.00044C9.47413 5.00044 10.668 6.19435 10.668 7.66711ZM12.0014 7.66711C12.0014 9.87625 10.2105 11.6671 8.00137 11.6671C5.79223 11.6671 4.00137 9.87625 4.00137 7.66711C4.00137 5.45797 5.79223 3.66711 8.00137 3.66711C10.2105 3.66711 12.0014 5.45797 12.0014 7.66711ZM12.6675 4.33377C12.6675 4.70196 12.369 5.00044 12.0008 5.00044C11.6327 5.00044 11.3342 4.70196 11.3342 4.33377C11.3342 3.96558 11.6327 3.66711 12.0008 3.66711C12.369 3.66711 12.6675 3.96558 12.6675 4.33377Z" fill="#DDDDDD"/>
</svg>
