<svg width="10" height="10" viewBox="0 0 10 10" fill="none" xmlns="http://www.w3.org/2000/svg">
    <path d="M8.99725 4.71958L8.99755 4.71904C9.56603 3.67152 9.67149 2.61404 9.22218 1.78452C8.76714 0.944431 7.8322 0.5 6.67497 0.5H5.00456H3.33415C2.17384 0.5 1.23943 0.94432 0.782703 1.78368C0.332106 2.61179 0.432879 3.66834 0.991003 4.71569L0.990986 4.7157L0.993097 4.71957L1.83143 6.25982L2.66947 7.79952C2.66951 7.79959 2.66954 7.79965 2.66958 7.79972C3.23483 8.84115 4.05535 9.49625 4.99518 9.49625C5.93503 9.49625 6.75556 8.84112 7.32081 7.79964C7.32084 7.7996 7.32086 7.79956 7.32088 7.79952L8.15892 6.25982L8.99725 4.71958Z" fill="#8265F6" stroke="white" stroke-miterlimit="10" stroke-linecap="round" stroke-linejoin="round"/>
</svg>
