<svg width="22" height="26" viewBox="0 0 22 26" fill="none" xmlns="http://www.w3.org/2000/svg">
<path fill-rule="evenodd" clip-rule="evenodd" d="M11.6278 25.8716C11.7496 25.9563 11.8989 26 12.0481 26C12.106 26 12.1639 25.9945 12.2187 25.9809L20.9331 23.9846C21.2346 23.9164 21.4479 23.6706 21.4479 23.3893V4.43735C21.4479 4.20249 21.2986 3.98949 21.0641 3.88572L12.3497 0.0625528C12.1365 -0.0302955 11.8867 -0.0193722 11.6857 0.0925919C11.4846 0.204556 11.3628 0.401176 11.3628 0.614181V25.3856C11.3628 25.5767 11.4603 25.7542 11.6278 25.8716ZM14.9028 12.4355C15.4558 12.4355 15.9028 12.8826 15.9028 13.4355C15.9028 13.9885 15.4558 14.4355 14.9028 14.4355C14.3499 14.4355 13.9028 13.9885 13.9028 13.4355C13.9028 12.8826 14.3499 12.4355 14.9028 12.4355Z" fill="#333333"/>
<rect x="0.552246" y="3.27539" width="9.97283" height="20.4812" fill="#333333"/>
</svg>
