<svg width="16" height="16" viewBox="0 0 16 16" fill="none" xmlns="http://www.w3.org/2000/svg">
<path fill-rule="evenodd" clip-rule="evenodd" d="M1.62607 9.17291L5.65762 2.1889C6.35342 0.983542 7.33785 0.240274 9.11029 1.26376C10.8827 2.28725 10.7314 3.51156 10.0356 4.71692L6.31142 11.1684L3.25576 9.40421C3.01661 9.26614 2.71082 9.34808 2.57275 9.58722C2.43468 9.82637 2.51661 10.1322 2.75576 10.2702L5.76083 12.0052C5.59144 12.1773 5.38349 12.3333 5.20505 12.4095L3.18184 13.2738C2.44811 13.5827 1.76759 13.1957 1.67526 12.4038L1.41202 10.2192C1.37341 9.9074 1.47258 9.4388 1.62607 9.17291Z" fill="white"/>
<line x1="5" y1="14.3135" x2="15" y2="14.3135" stroke="white" stroke-width="2" stroke-linecap="round"/>
</svg>
