<svg width="12" height="12" viewBox="0 0 12 12" fill="none" xmlns="http://www.w3.org/2000/svg">
<path d="M2.24637 10.9296L1.51887 8.61215C1.45887 8.4134 1.54512 8.19591 1.73262 8.09091L2.67762 7.57715L3.78387 11.1134L2.71512 11.2334C2.50512 11.2596 2.31012 11.1321 2.24637 10.9296Z" fill="#998EA4"/>
<path d="M9.96383 10.9296L10.6913 8.61215C10.7551 8.4134 10.6688 8.19591 10.4776 8.09091L9.53258 7.57715L8.42633 11.1134L9.49508 11.2334C9.70508 11.2596 9.90008 11.1321 9.96383 10.9296Z" fill="#998EA4"/>
<path d="M10.0203 6.04147C9.98283 6.15397 10.0316 6.27772 10.1328 6.33397C10.5228 6.54022 10.6728 7.01647 10.4778 7.41772L10.2678 7.84146C10.2191 7.94271 10.1178 7.99897 10.0128 7.99897C9.96033 7.99897 9.90408 7.98022 9.85158 7.94648C9.73158 7.86773 9.69783 7.70272 9.76158 7.57522L9.96783 7.16271C10.0278 7.04272 9.97533 6.90397 9.85908 6.84022C9.51783 6.65272 9.35658 6.24397 9.47658 5.86897C9.58533 5.52772 9.64158 5.16772 9.64158 4.80397V4.79647C9.64158 4.38022 9.52908 3.97147 9.31908 3.61522C8.67408 2.51647 7.47783 1.78147 6.11283 1.78147C4.74408 1.78147 3.55158 2.51647 2.90283 3.61522C2.69283 3.97147 2.58033 4.38022 2.58033 4.79647V4.80397C2.58033 5.16772 2.63658 5.52772 2.74533 5.86897C2.86908 6.24772 2.70783 6.65272 2.36283 6.84022C2.24658 6.90397 2.19408 7.04272 2.25408 7.16271L2.46033 7.57522C2.52408 7.70272 2.49033 7.86398 2.37033 7.94648C2.32158 7.98397 2.26533 7.99897 2.20908 7.99897C2.10408 7.99897 2.00283 7.94271 1.95408 7.84146L1.74408 7.41772C1.54533 7.02022 1.69908 6.54772 2.08908 6.33772C2.19033 6.28522 2.23908 6.16147 2.20158 6.04522C2.04033 5.54647 1.98033 5.02522 2.01783 4.49647C2.08908 3.53272 2.50908 2.62522 3.18783 1.94272C3.96408 1.15897 5.00283 0.738974 6.10533 0.750224H6.11283C7.20783 0.738974 8.23158 1.15147 9.00783 1.91647C9.78783 2.68147 10.2153 3.70897 10.2153 4.80022C10.2153 5.22397 10.1478 5.64022 10.0203 6.04147Z" fill="#CDC4D6"/>
<path d="M3.59289 6.89043L2.86913 7.11544C2.67038 7.17919 2.56164 7.38918 2.62164 7.58793L3.72038 11.1017C3.78413 11.3004 3.99414 11.4092 4.19289 11.3492L4.91663 11.1242C5.11538 11.0604 5.22414 10.8504 5.16414 10.6517L4.06538 7.13794C4.00538 6.93919 3.79164 6.83043 3.59289 6.89043Z" fill="#CDC4D6"/>
<path d="M8.6179 6.89043L9.34165 7.11544C9.5404 7.17919 9.64915 7.38918 9.58915 7.58793L8.4904 11.1017C8.42665 11.3004 8.21665 11.4092 8.0179 11.3492L7.29415 11.1242C7.0954 11.0604 6.98665 10.8504 7.04665 10.6517L8.1454 7.13794C8.20915 6.93919 8.41915 6.83043 8.6179 6.89043Z" fill="#CDC4D6"/>
</svg>
