<svg width="14" height="14" viewBox="0 0 14 14" fill="none" xmlns="http://www.w3.org/2000/svg">
    <path fill-rule="evenodd" clip-rule="evenodd" d="M7.28278 2.58462L7.73951 2.10118C8.56784 1.22618 9.54201 0.800351 10.8253 2.00785C12.1145 3.22702 11.7412 4.22452 10.9128 5.09952L10.4559 5.58314C10.379 5.51195 10.2791 5.46429 10.1668 5.45297C8.77014 5.3123 7.64712 4.25307 7.43154 2.86932C7.41392 2.75623 7.35968 2.65793 7.28278 2.58462ZM6.51871 3.39336L2.95034 7.17035C2.76951 7.36285 2.59451 7.74202 2.55951 8.00452L2.34368 9.89452C2.26784 10.577 2.75784 11.0437 3.43451 10.927L5.31284 10.6062C5.57534 10.5595 5.94284 10.367 6.12368 10.1687L9.69117 6.39261C8.14329 6.09103 6.90419 4.92364 6.51871 3.39336Z" fill="#BBBBBB"/>
    <path d="M1.75 13H12.25" stroke="#BBBBBB" stroke-miterlimit="10" stroke-linecap="round" stroke-linejoin="round"/>
</svg>
