<svg width="33" height="33" viewBox="0 0 33 33" fill="none" xmlns="http://www.w3.org/2000/svg">
<g filter="url(#filter0_d_561_15782)">
<path fill-rule="evenodd" clip-rule="evenodd" d="M27.5 18.75C27.5 25 25 27.5 18.75 27.5H11.25C5 27.5 2.5 25 2.5 18.75V11.25C2.5 5 5 2.5 11.25 2.5H18.75C25 2.5 27.5 5 27.5 11.25V18.75ZM10.7122 12.5C11.4026 12.5 11.9622 11.9404 11.9622 11.25C11.9622 10.5596 11.4026 10 10.7122 10C10.0219 10 9.46221 10.5596 9.46221 11.25C9.46221 11.9404 10.0219 12.5 10.7122 12.5ZM20.3679 11.25C20.3679 11.9404 19.8083 12.5 19.1179 12.5C18.4276 12.5 17.8679 11.9404 17.8679 11.25C17.8679 10.5596 18.4276 10 19.1179 10C19.8083 10 20.3679 10.5596 20.3679 11.25ZM19.8 15H10.2C9.53333 15 9 15.5185 9 16.1667C9 19.3944 11.68 22 15 22C18.32 22 21 19.3944 21 16.1667C21 15.5185 20.4667 15 19.8 15Z" fill="white"/>
</g>
<defs>
<filter id="filter0_d_561_15782" x="1.5" y="1.5" width="31" height="31" filterUnits="userSpaceOnUse" color-interpolation-filters="sRGB">
<feFlood flood-opacity="0" result="BackgroundImageFix"/>
<feColorMatrix in="SourceAlpha" type="matrix" values="0 0 0 0 0 0 0 0 0 0 0 0 0 0 0 0 0 0 127 0" result="hardAlpha"/>
<feOffset dx="2" dy="2"/>
<feGaussianBlur stdDeviation="1.5"/>
<feComposite in2="hardAlpha" operator="out"/>
<feColorMatrix type="matrix" values="0 0 0 0 0 0 0 0 0 0 0 0 0 0 0 0 0 0 0.07 0"/>
<feBlend mode="normal" in2="BackgroundImageFix" result="effect1_dropShadow_561_15782"/>
<feBlend mode="normal" in="SourceGraphic" in2="effect1_dropShadow_561_15782" result="shape"/>
</filter>
</defs>
</svg>
