<svg width="44" height="44" viewBox="0 0 44 44" fill="none" xmlns="http://www.w3.org/2000/svg">
    <path fill-rule="evenodd" clip-rule="evenodd" d="M44 22C44 34.1503 34.1503 44 22 44C9.84974 44 0 34.1503 0 22C0 9.84974 9.84974 0 22 0C34.1503 0 44 9.84974 44 22ZM10.2988 18.0361C10.8921 18.0288 11.3828 17.5747 11.3828 17.0107C11.3828 16.4541 10.8921 16 10.2988 16C9.70557 16 9.21484 16.4541 9.21484 17.0107C9.21484 17.5747 9.70557 18.0288 10.2988 18.0361ZM4 23.0752C4 25.8364 4.82031 28.1289 6.19727 30.1064H7.95508C6.94434 28.6416 5.93359 25.6973 5.93359 23.0752C5.93359 20.4531 6.94434 17.5161 7.95508 16.0586H6.19727C4.82031 18.0215 4 20.3213 4 23.0752ZM18.9378 19.2732C18.3478 18.9432 17.6628 18.7782 16.8828 18.7782C16.0628 18.7782 15.3528 18.9432 14.7528 19.2732C14.1528 19.6032 13.6928 20.0882 13.3728 20.7282C13.0528 21.3682 12.8928 22.1532 12.8928 23.0832H15.1728C15.1728 22.2332 15.3028 21.6032 15.5628 21.1932C15.8328 20.7832 16.2628 20.5782 16.8528 20.5782C17.2528 20.5782 17.5778 20.6682 17.8278 20.8482C18.0778 21.0282 18.2578 21.3032 18.3678 21.6732C18.4878 22.0432 18.5478 22.5132 18.5478 23.0832H20.8278C20.8278 22.1432 20.6578 21.3532 20.3178 20.7132C19.9878 20.0732 19.5278 19.5932 18.9378 19.2732ZM23.4238 18.0361C24.0171 18.0288 24.5078 17.5747 24.5078 17.0107C24.5078 16.4541 24.0171 16 23.4238 16C22.8306 16 22.3398 16.4541 22.3398 17.0107C22.3398 17.5747 22.8306 18.0288 23.4238 18.0361ZM26.3178 24.6132V27.1182H28.5678V24.4632C28.5678 24.0532 28.6578 23.7282 28.8378 23.4882C29.0178 23.2482 29.2878 23.1182 29.6478 23.0982L29.8128 22.1232L28.4778 21.5082C28.4978 21.2282 28.6228 20.9932 28.8528 20.8032C29.0828 20.6032 29.4278 20.5032 29.8878 20.5032C30.3678 20.5032 30.7378 20.6282 30.9978 20.8782C31.2678 21.1282 31.4028 21.5032 31.4028 22.0032V27.1182H33.6528V21.8682C33.6528 21.1582 33.4978 20.5732 33.1878 20.1132C32.8878 19.6432 32.4628 19.2932 31.9128 19.0632C31.3628 18.8232 30.7078 18.7032 29.9478 18.7032C29.1378 18.7032 28.4478 18.8282 27.8778 19.0782C27.3178 19.3182 26.8928 19.6432 26.6028 20.0532C26.3128 20.4632 26.1678 20.9132 26.1678 21.4032V21.7932L27.7728 22.3782L27.7578 22.4382C27.2978 22.5782 26.9428 22.8182 26.6928 23.1582C26.4428 23.4982 26.3178 23.9832 26.3178 24.6132ZM30.0303 16.1758H27.8916L29.8691 18.3584H31.4512L30.0303 16.1758ZM36.8857 16.0586C38.2627 18.0215 39.083 20.3213 39.083 23.0752C39.083 25.8364 38.2627 28.1289 36.8857 30.1064H35.1279C36.1387 28.6416 37.1494 25.6973 37.1494 23.0752C37.1494 20.4531 36.1387 17.5161 35.1279 16.0586H36.8857Z" fill="#DDDDDD"/>
</svg>
