<svg width="24" height="24" viewBox="0 0 24 24" fill="none" xmlns="http://www.w3.org/2000/svg">
<path d="M22.1055 22.1026L15.0029 15" stroke="#333333" stroke-width="2.5" stroke-miterlimit="10" stroke-linecap="round" stroke-linejoin="round"/>
<path fill-rule="evenodd" clip-rule="evenodd" d="M12.9841 18.2378L15.6189 15.6029L20.2375 10.9844C21.258 9.96384 21.258 8.30222 20.2375 7.28169L14.69 1.73415C13.6695 0.713617 12.0078 0.713617 10.9873 1.73415L3.74566 8.97579L12.8666 18.0966C12.9107 18.1408 12.9499 18.1881 12.9841 18.2378ZM11.5935 19.6284L10.9873 20.2346C9.96677 21.2551 8.30513 21.2551 7.2846 20.2346L1.73708 14.6871C0.716546 13.6665 0.716546 12.0049 1.73708 10.9844L2.33145 10.39L11.4523 19.5109C11.4965 19.555 11.5438 19.5942 11.5935 19.6284Z" fill="#333333"/>
</svg>
