<svg width="24" height="25" viewBox="0 0 24 25" fill="none" xmlns="http://www.w3.org/2000/svg">
<path d="M14.9 2.36133H9.10001C8.42001 2.36133 7.46 2.76133 6.98 3.24133L2.88 7.34134C2.4 7.82134 2 8.78133 2 9.46133V15.2613C2 15.9413 2.4 16.9013 2.88 17.3813L6.98 21.4813C7.46 21.9613 8.42001 22.3613 9.10001 22.3613H14.9C15.58 22.3613 16.54 21.9613 17.02 21.4813L21.12 17.3813C21.6 16.9013 22 15.9413 22 15.2613V9.46133C22 8.78133 21.6 7.82134 21.12 7.34134L17.02 3.24133C16.54 2.76133 15.58 2.36133 14.9 2.36133Z" stroke="#BBBBBB" stroke-width="1.5" stroke-linecap="round" stroke-linejoin="round"/>
<path d="M8.5 15.8613L15.5 8.86133" stroke="#BBBBBB" stroke-width="1.5" stroke-linecap="round" stroke-linejoin="round"/>
<path d="M15.5 15.8613L8.5 8.86133" stroke="#BBBBBB" stroke-width="1.5" stroke-linecap="round" stroke-linejoin="round"/>
</svg>
