<svg width="20" height="20" viewBox="0 0 20 20" fill="none" xmlns="http://www.w3.org/2000/svg">
<path d="M7.36863 8.9532C7.27604 8.94394 7.16493 8.94394 7.06308 8.9532C4.85937 8.87912 3.10938 7.07357 3.10938 4.85135C3.10937 2.58283 4.94271 0.740234 7.22049 0.740234C9.489 0.740234 11.3316 2.58283 11.3316 4.85135C11.3223 7.07357 9.57234 8.87912 7.36863 8.9532Z" fill="#333333"/>
<path fill-rule="evenodd" clip-rule="evenodd" d="M11.9434 8.49833C12.4899 8.95192 13.1846 9.23284 13.9461 9.25846C14.0287 9.25095 14.1187 9.25095 14.1938 9.25846C15.9806 9.19834 17.3995 7.73272 17.407 5.92889C17.407 4.08748 15.913 2.5918 14.0737 2.5918C13.5169 2.5918 12.9928 2.72776 12.5324 2.96816C12.81 3.64923 12.964 4.4012 12.964 5.19138C12.9592 6.43113 12.5811 7.57503 11.9434 8.49833Z" fill="#333333"/>
<path d="M2.73915 12.3704C0.498408 13.8704 0.498408 16.3149 2.73915 17.8056C5.28545 19.5093 9.46137 19.5093 12.0077 17.8056C14.2484 16.3056 14.2484 13.8612 12.0077 12.3704C9.47063 10.676 5.29471 10.676 2.73915 12.3704Z" fill="#333333"/>
<path fill-rule="evenodd" clip-rule="evenodd" d="M14.7158 17.4023C16.5753 15.5975 16.2881 13.1169 13.8539 11.5311C13.8395 11.5216 13.8251 11.5123 13.8105 11.5029C15.3948 11.3909 17.0453 11.6979 18.2476 12.4237C20.0875 13.5302 20.0875 15.3446 18.2476 16.458C17.2713 17.0485 16.0032 17.3632 14.7158 17.4023Z" fill="#333333"/>
</svg>
