<svg width="19" height="19" viewBox="0 0 19 19" fill="none" xmlns="http://www.w3.org/2000/svg">
<path fill-rule="evenodd" clip-rule="evenodd" d="M19 6.65V12.35C19 17.1 17.1 19 12.35 19H10.3376C10.3558 18.7403 10.3648 18.4675 10.3648 18.1814V13.7769C10.3648 10.1064 8.89658 8.63824 5.22612 8.63824H0.821579C0.53435 8.63824 0.260608 8.64723 0 8.66556V6.65C0 1.9 1.9 0 6.65 0H12.35C17.1 0 19 1.9 19 6.65ZM11.6883 3.27461C11.2686 3.27461 10.9283 3.61488 10.9283 4.03461C10.9283 4.45435 11.2686 4.79461 11.6883 4.79461H13.1318L10.6078 7.31888C10.311 7.61569 10.311 8.0969 10.6078 8.39369C10.9046 8.69047 11.3858 8.69045 11.6826 8.39364L14.2064 5.86963L14.2063 7.31279C14.2063 7.73253 14.5465 8.07281 14.9663 8.07283C15.386 8.07286 15.7263 7.73261 15.7263 7.31288L15.7265 4.03466C15.7265 3.83309 15.6465 3.63977 15.5039 3.49723C15.3614 3.35469 15.1681 3.27461 14.9665 3.27461H11.6883Z" fill="white"/>
<path d="M8.63636 13.3845V15.9755C8.63636 18.1345 7.77273 18.9982 5.61364 18.9982H3.02273C0.863636 18.9982 0 18.1345 0 15.9755V13.3845C0 11.2255 0.863636 10.3618 3.02273 10.3618H5.61364C7.77273 10.3618 8.63636 11.2255 8.63636 13.3845Z" fill="white"/>
</svg>
