<svg width="12" height="12" viewBox="0 0 12 12" fill="none" xmlns="http://www.w3.org/2000/svg">
<path fill-rule="evenodd" clip-rule="evenodd" d="M2.60199 8.81222C2.60199 9.13945 2.33672 9.40473 2.00949 9.40473C1.68226 9.40473 1.41699 9.13945 1.41699 8.81222C1.41699 8.48499 1.68226 8.21973 2.00949 8.21973C2.33672 8.21973 2.60199 8.48499 2.60199 8.81222ZM10.5745 8.81222C10.5745 9.13945 10.3092 9.40473 9.982 9.40473C9.65477 9.40473 9.3895 9.13945 9.3895 8.81222C9.3895 8.48499 9.65477 8.21973 9.982 8.21973C10.3092 8.21973 10.5745 8.48499 10.5745 8.81222Z" fill="#00A6ED"/>
<path fill-rule="evenodd" clip-rule="evenodd" d="M3.8432 4.97625L5.0357 6.5775L2.56445 6.86251L3.35945 5.02875C3.1682 4.95375 3.0332 4.76625 3.0332 4.54875C3.0332 4.26375 3.2657 4.03125 3.5507 4.03125C3.8357 4.03125 4.0682 4.26375 4.0682 4.54875C4.0682 4.72875 3.9782 4.8825 3.8432 4.97625ZM8.62828 5.02875L9.42328 6.86251L6.95203 6.5775L8.14453 4.97625C8.00953 4.8825 7.91953 4.725 7.91953 4.54875C7.91953 4.26375 8.15203 4.03125 8.43703 4.03125C8.72203 4.03125 8.95453 4.26375 8.95453 4.54875C8.95453 4.76625 8.81953 4.95375 8.62828 5.02875Z" fill="#E19747"/>
<path d="M11.2425 4.90875C11.2425 4.62375 11.01 4.39125 10.725 4.39125C10.44 4.39125 10.2075 4.62375 10.2075 4.90875C10.2075 5.01375 10.2412 5.115 10.2937 5.19375C10.2112 5.19375 10.1288 5.2125 10.05 5.265L8.57625 6.21751C8.38125 6.34126 8.12625 6.29625 7.9875 6.10875L6.34875 3.88501C6.3375 3.86626 6.3225 3.85125 6.3075 3.83625C6.50625 3.7275 6.64125 3.51375 6.64125 3.27C6.64125 2.91375 6.3525 2.625 5.99625 2.625C5.64 2.625 5.35125 2.91375 5.35125 3.27C5.35125 3.51375 5.48625 3.7275 5.685 3.83625C5.67 3.85125 5.655 3.86626 5.64375 3.88501L4.005 6.10875C3.87 6.29625 3.61125 6.34126 3.41625 6.21751L1.9425 5.265C1.86375 5.2125 1.78125 5.19375 1.69875 5.19375C1.755 5.11125 1.785 5.01375 1.785 4.90875C1.785 4.62375 1.5525 4.39125 1.2675 4.39125C0.9825 4.39125 0.75 4.62375 0.75 4.90875C0.75 5.19375 0.9825 5.42625 1.2675 5.42625C1.28625 5.42625 1.305 5.42625 1.32 5.4225C1.27125 5.50875 1.2525 5.61 1.275 5.71875L2.25 10.5825C2.32125 10.9313 2.62875 11.1825 2.985 11.1825H3.76125H5.99625H8.23125H9.0075C9.36375 11.1825 9.67125 10.9313 9.7425 10.5825L10.7175 5.71875C10.74 5.61 10.7175 5.505 10.6725 5.4225C10.6913 5.4225 10.71 5.42625 10.725 5.42625C11.01 5.42625 11.2425 5.19375 11.2425 4.90875Z" fill="#FFB02E"/>
<path d="M5.99609 9.75C6.51386 9.75 6.93359 9.33027 6.93359 8.8125C6.93359 8.29473 6.51386 7.875 5.99609 7.875C5.47833 7.875 5.05859 8.29473 5.05859 8.8125C5.05859 9.33027 5.47833 9.75 5.99609 9.75Z" fill="#00A6ED"/>
<path fill-rule="evenodd" clip-rule="evenodd" d="M4.125 8.8125C4.125 9.12316 3.87316 9.375 3.5625 9.375C3.25184 9.375 3 9.12316 3 8.8125C3 8.50183 3.25184 8.25 3.5625 8.25C3.87316 8.25 4.125 8.50183 4.125 8.8125ZM9 8.81249C9 9.12315 8.74816 9.375 8.4375 9.375C8.12684 9.375 7.875 9.12315 7.875 8.81249C7.875 8.50183 8.12684 8.25 8.4375 8.25C8.74816 8.25 9 8.50183 9 8.81249Z" fill="#F8312F"/>
</svg>
