<svg width="88" height="88" viewBox="0 0 88 88" fill="none" xmlns="http://www.w3.org/2000/svg">
<g clip-path="url(#clip0_1220_169984)">
<g clip-path="url(#clip1_1220_169984)">
<rect width="88" height="88" rx="44" fill="#E6E8F1"/>
<path fill-rule="evenodd" clip-rule="evenodd" d="M43.9893 48.688C46.2331 48.688 48.2711 48.0531 50.1031 46.7834C51.9338 45.5123 53.2617 43.8373 54.0866 41.7585H50.8198C50.0939 42.9794 49.129 43.9442 47.9253 44.653C46.7202 45.3632 45.4082 45.7182 43.9893 45.7182C42.5704 45.7182 41.2584 45.3632 40.0533 44.653C38.8495 43.9442 37.8847 42.9794 37.1587 41.7585H33.8919C34.7169 43.8373 36.0454 45.5123 37.8774 46.7834C39.7081 48.0531 41.7454 48.688 43.9893 48.688ZM29.9817 51.8063C30.3371 52.1617 30.705 52.5024 31.0853 52.8282C20.4127 57.7228 13 68.5014 13 81.0114C13 98.1263 26.8744 112.001 43.9893 112.001C61.1042 112.001 74.9786 98.1263 74.9786 81.0114C74.9786 68.5014 67.5659 57.7228 56.8933 52.8282C57.2736 52.5023 57.6415 52.1617 57.9969 51.8063C59.7788 50.0244 61.1891 47.9291 62.2279 45.5202C63.268 43.1114 63.788 40.5375 63.788 37.7987C63.788 35.0599 63.268 32.4861 62.2279 30.0772C61.1891 27.6684 59.7788 25.573 57.9969 23.7911C56.215 22.0092 54.1196 20.5983 51.7108 19.5582C49.3019 18.5194 46.7281 18 43.9893 18C41.2505 18 38.6766 18.5194 36.2678 19.5582C33.8589 20.5983 31.7636 22.0092 29.9817 23.7911C28.1998 25.573 26.7895 27.6684 25.7507 30.0772C24.7106 32.4861 24.1906 35.0599 24.1906 37.7987C24.1906 40.5375 24.7106 43.1114 25.7507 45.5202C26.7895 47.9291 28.1998 50.0244 29.9817 51.8063Z" fill="#F9FAFF"/>
</g>
<rect x="0.528" y="0.528" width="86.944" height="86.944" rx="43.472" stroke="#E6E8F1" stroke-width="1.056"/>
</g>
<defs>
<clipPath id="clip0_1220_169984">
<rect width="88" height="88" fill="white"/>
</clipPath>
<clipPath id="clip1_1220_169984">
<rect width="88" height="88" rx="44" fill="white"/>
</clipPath>
</defs>
</svg>
