<svg width="1541" height="420" viewBox="0 0 1541 420" fill="none" xmlns="http://www.w3.org/2000/svg">
<rect x="1" y="1" width="1539" height="418" rx="11" stroke="#999999" stroke-width="2"/>
<path d="M245.289 142H184.633C181.872 142 179.633 144.239 179.633 147V205C179.633 207.761 177.394 210 174.633 210H133C130.239 210 128 212.239 128 215V273C128 275.761 130.239 278 133 278H333C335.761 278 338 275.761 338 273V215C338 212.239 335.761 210 333 210H255.289C252.528 210 250.289 207.761 250.289 205V147C250.289 144.239 248.051 142 245.289 142Z" fill="white" fill-opacity="0.1" stroke="white" stroke-width="2" stroke-linecap="round"/>
<path d="M1168.29 278H1107.63C1104.87 278 1102.63 280.239 1102.63 283V341C1102.63 343.761 1100.39 346 1097.63 346H1038C1035.24 346 1033 348.239 1033 351V409C1033 411.761 1035.24 414 1038 414H1238C1240.76 414 1243 411.761 1243 409V351C1243 348.239 1240.76 346 1238 346H1178.29C1175.53 346 1173.29 343.761 1173.29 341V283C1173.29 280.239 1171.05 278 1168.29 278Z" fill="white" fill-opacity="0.1" stroke="white" stroke-width="2" stroke-linecap="round"/>
<rect x="11" y="11" width="95" height="58" rx="5" stroke="#999999" stroke-width="2"/>
<rect x="116" y="11" width="60" height="58" rx="5" stroke="#999999" stroke-width="2"/>
<rect x="11" y="147" width="94" height="58" rx="5" stroke="#999999" stroke-width="2"/>
<rect x="11" y="215" width="112" height="58" rx="5" stroke="#999999" stroke-width="2"/>
<rect x="11" y="283" width="147" height="58" rx="5" stroke="#999999" stroke-width="2"/>
<rect x="11" y="351" width="94" height="58" rx="5" stroke="#999999" stroke-width="2"/>
<rect x="396" y="11" width="60" height="58" rx="5" stroke="#999999" stroke-width="2"/>
<rect x="291" y="79" width="60" height="58" rx="5" stroke="#999999" stroke-width="2"/>
<rect x="325" y="147" width="60" height="58" rx="5" stroke="#999999" stroke-width="2"/>
<rect x="343" y="215" width="60" height="58" rx="5" stroke="#999999" stroke-width="2"/>
<rect x="308" y="283" width="60" height="58" rx="5" stroke="#999999" stroke-width="2"/>
<rect x="256" y="11" width="60" height="58" rx="5" stroke="#999999" stroke-width="2"/>
<rect x="151" y="79" width="60" height="58" rx="5" stroke="#999999" stroke-width="2"/>
<rect x="185" y="147" width="60" height="58" rx="5" stroke="#999999" stroke-width="2"/>
<rect x="203" y="215" width="60" height="58" rx="5" stroke="#999999" stroke-width="2"/>
<rect x="168" y="283" width="60" height="58" rx="5" stroke="#999999" stroke-width="2"/>
<rect x="1260" y="283" width="60" height="58" rx="5" stroke="#999999" stroke-width="2"/>
<rect x="1330" y="283" width="60" height="58" rx="5" stroke="#999999" stroke-width="2"/>
<rect x="1400" y="283" width="60" height="58" rx="5" stroke="#999999" stroke-width="2"/>
<rect x="1400" y="351" width="60" height="58" rx="5" stroke="#999999" stroke-width="2"/>
<rect x="1470" y="283" width="60" height="126" rx="5" stroke="#999999" stroke-width="2"/>
<rect x="1108" y="283" width="60" height="58" rx="5" stroke="#999999" stroke-width="2"/>
<rect x="536" y="11" width="60" height="58" rx="5" stroke="#999999" stroke-width="2"/>
<rect x="431" y="79" width="60" height="58" rx="5" stroke="#999999" stroke-width="2"/>
<rect x="465" y="147" width="60" height="58" rx="5" stroke="#999999" stroke-width="2"/>
<rect x="483" y="215" width="60" height="58" rx="5" stroke="#999999" stroke-width="2"/>
<rect x="448" y="283" width="60" height="58" rx="5" stroke="#999999" stroke-width="2"/>
<rect x="816" y="11" width="60" height="58" rx="5" stroke="#999999" stroke-width="2"/>
<rect x="711" y="79" width="60" height="58" rx="5" stroke="#999999" stroke-width="2"/>
<rect x="745" y="147" width="60" height="58" rx="5" stroke="#999999" stroke-width="2"/>
<rect x="763" y="215" width="60" height="58" rx="5" stroke="#999999" stroke-width="2"/>
<rect x="728" y="283" width="60" height="58" rx="5" stroke="#999999" stroke-width="2"/>
<rect x="186" y="11" width="60" height="58" rx="5" stroke="#999999" stroke-width="2"/>
<rect x="1038" y="11" width="60" height="58" rx="5" stroke="#999999" stroke-width="2"/>
<rect x="1108" y="11" width="60" height="58" rx="5" stroke="#999999" stroke-width="2"/>
<rect x="1178" y="11" width="60" height="58" rx="5" stroke="#999999" stroke-width="2"/>
<rect x="1260" y="11" width="60" height="58" rx="5" stroke="#999999" stroke-width="2"/>
<rect x="1330" y="11" width="60" height="58" rx="5" stroke="#999999" stroke-width="2"/>
<rect x="1400" y="11" width="60" height="58" rx="5" stroke="#999999" stroke-width="2"/>
<rect x="1470" y="11" width="60" height="58" rx="5" stroke="#999999" stroke-width="2"/>
<rect x="81" y="79" width="60" height="58" rx="5" stroke="#999999" stroke-width="2"/>
<rect x="1038" y="79" width="60" height="58" rx="5" stroke="#999999" stroke-width="2"/>
<rect x="1108" y="79" width="60" height="58" rx="5" stroke="#999999" stroke-width="2"/>
<rect x="1178" y="79" width="60" height="58" rx="5" stroke="#999999" stroke-width="2"/>
<rect x="1260" y="79" width="60" height="58" rx="5" stroke="#999999" stroke-width="2"/>
<rect x="1330" y="79" width="60" height="58" rx="5" stroke="#999999" stroke-width="2"/>
<rect x="1400" y="79" width="60" height="58" rx="5" stroke="#999999" stroke-width="2"/>
<rect x="1470" y="79" width="60" height="58" rx="5" stroke="#999999" stroke-width="2"/>
<rect x="115" y="147" width="60" height="58" rx="5" stroke="#999999" stroke-width="2"/>
<rect x="1038" y="147" width="60" height="58" rx="5" stroke="#999999" stroke-width="2"/>
<rect x="1108" y="147" width="60" height="58" rx="5" stroke="#999999" stroke-width="2"/>
<rect x="1178" y="147" width="60" height="58" rx="5" stroke="#999999" stroke-width="2"/>
<rect x="1260" y="147" width="60" height="58" rx="5" stroke="#999999" stroke-width="2"/>
<rect x="1330" y="147" width="60" height="58" rx="5" stroke="#999999" stroke-width="2"/>
<rect x="1400" y="147" width="60" height="58" rx="5" stroke="#999999" stroke-width="2"/>
<rect x="1470" y="147" width="60" height="58" rx="5" stroke="#999999" stroke-width="2"/>
<rect x="133" y="215" width="60" height="58" rx="5" stroke="#999999" stroke-width="2"/>
<rect x="1260" y="215" width="60" height="58" rx="5" stroke="#999999" stroke-width="2"/>
<rect x="1330" y="215" width="60" height="58" rx="5" stroke="#999999" stroke-width="2"/>
<rect x="1400" y="215" width="60" height="58" rx="5" stroke="#999999" stroke-width="2"/>
<rect x="1470" y="215" width="60" height="58" rx="5" stroke="#999999" stroke-width="2"/>
<rect x="115" y="351" width="78" height="58" rx="5" stroke="#999999" stroke-width="2"/>
<rect x="1038" y="351" width="60" height="58" rx="5" stroke="#999999" stroke-width="2"/>
<rect x="1108" y="351" width="60" height="58" rx="5" stroke="#999999" stroke-width="2"/>
<rect x="1178" y="351" width="60" height="58" rx="5" stroke="#999999" stroke-width="2"/>
<rect x="1260" y="351" width="130" height="58" rx="5" stroke="#999999" stroke-width="2"/>
<rect x="203" y="351" width="95" height="58" rx="5" stroke="#999999" stroke-width="2"/>
<rect x="466" y="11" width="60" height="58" rx="5" stroke="#999999" stroke-width="2"/>
<rect x="361" y="79" width="60" height="58" rx="5" stroke="#999999" stroke-width="2"/>
<rect x="395" y="147" width="60" height="58" rx="5" stroke="#999999" stroke-width="2"/>
<rect x="413" y="215" width="60" height="58" rx="5" stroke="#999999" stroke-width="2"/>
<rect x="378" y="283" width="60" height="58" rx="5" stroke="#999999" stroke-width="2"/>
<rect x="746" y="11" width="60" height="58" rx="5" stroke="#999999" stroke-width="2"/>
<rect x="641" y="79" width="60" height="58" rx="5" stroke="#999999" stroke-width="2"/>
<rect x="675" y="147" width="60" height="58" rx="5" stroke="#999999" stroke-width="2"/>
<rect x="693" y="215" width="60" height="58" rx="5" stroke="#999999" stroke-width="2"/>
<rect x="11" y="79" width="60" height="58" rx="5" stroke="#999999" stroke-width="2"/>
<rect x="658" y="283" width="60" height="58" rx="5" stroke="#999999" stroke-width="2"/>
<rect x="326" y="11" width="60" height="58" rx="5" stroke="#999999" stroke-width="2"/>
<rect x="221" y="79" width="60" height="58" rx="5" stroke="#999999" stroke-width="2"/>
<rect x="255" y="147" width="60" height="58" rx="5" stroke="#999999" stroke-width="2"/>
<rect x="273" y="215" width="60" height="58" rx="5" stroke="#999999" stroke-width="2"/>
<rect x="238" y="283" width="60" height="58" rx="5" stroke="#999999" stroke-width="2"/>
<rect x="676" y="11" width="60" height="58" rx="5" stroke="#999999" stroke-width="2"/>
<rect x="571" y="79" width="60" height="58" rx="5" stroke="#999999" stroke-width="2"/>
<rect x="605" y="147" width="60" height="58" rx="5" stroke="#999999" stroke-width="2"/>
<rect x="623" y="215" width="60" height="58" rx="5" stroke="#999999" stroke-width="2"/>
<rect x="588" y="283" width="60" height="58" rx="5" stroke="#999999" stroke-width="2"/>
<rect x="956" y="11" width="60" height="58" rx="5" stroke="#999999" stroke-width="2"/>
<rect x="851" y="79" width="60" height="58" rx="5" stroke="#999999" stroke-width="2"/>
<rect x="885" y="147" width="60" height="58" rx="5" stroke="#999999" stroke-width="2"/>
<rect x="903" y="215" width="113" height="58" rx="5" stroke="#999999" stroke-width="2"/>
<rect x="868" y="283" width="148" height="58" rx="5" stroke="#999999" stroke-width="2"/>
<rect x="921" y="351" width="95" height="58" rx="5" stroke="#999999" stroke-width="2"/>
<rect x="955" y="147" width="61" height="58" rx="5" stroke="#999999" stroke-width="2"/>
<rect x="921" y="79" width="95" height="58" rx="5" stroke="#999999" stroke-width="2"/>
<rect x="606" y="11" width="60" height="58" rx="5" stroke="#999999" stroke-width="2"/>
<rect x="501" y="79" width="60" height="58" rx="5" stroke="#999999" stroke-width="2"/>
<rect x="535" y="147" width="60" height="58" rx="5" stroke="#999999" stroke-width="2"/>
<rect x="553" y="215" width="60" height="58" rx="5" stroke="#999999" stroke-width="2"/>
<rect x="518" y="283" width="60" height="58" rx="5" stroke="#999999" stroke-width="2"/>
<rect x="886" y="11" width="60" height="58" rx="5" stroke="#999999" stroke-width="2"/>
<rect x="781" y="79" width="60" height="58" rx="5" stroke="#999999" stroke-width="2"/>
<rect x="815" y="147" width="60" height="58" rx="5" stroke="#999999" stroke-width="2"/>
<rect x="833" y="215" width="60" height="58" rx="5" stroke="#999999" stroke-width="2"/>
<rect x="798" y="283" width="60" height="58" rx="5" stroke="#999999" stroke-width="2"/>
<rect x="833" y="351" width="78" height="58" rx="5" stroke="#999999" stroke-width="2"/>
<rect x="728" y="351" width="95" height="58" rx="5" stroke="#999999" stroke-width="2"/>
<rect x="308" y="351" width="410" height="58" rx="5" stroke="#999999" stroke-width="2"/>
<path d="M211.885 184L214.968 172.495H215.032L218.115 184H219.78L223.83 169.337H221.746L218.91 180.81H218.846L215.956 169.337H214.044L211.133 180.81H211.079L208.243 169.337H206.17L210.198 184H211.885Z" fill="white"/>
<path d="M227.946 248.047C228 249.948 229.343 252.312 233.231 252.312C236.282 252.312 238.699 250.808 238.699 247.918C238.699 245.565 237.142 244.523 234.886 243.933L232.351 243.256C230.943 242.901 230.288 242.128 230.288 241.086C230.288 239.518 231.609 238.647 233.425 238.647C235.477 238.647 236.551 239.754 236.68 241.161H238.538C238.474 238.314 235.96 236.993 233.468 236.993C230.836 236.993 228.387 238.465 228.387 241.215C228.387 243.503 230.073 244.609 231.813 245.061L234.392 245.737C236.024 246.156 236.787 246.844 236.787 248.058C236.787 249.658 235.477 250.646 233.436 250.646C231.18 250.646 229.966 249.465 229.826 248.047H227.946Z" fill="white"/>
<path d="M159.278 252L160.761 247.596H166.218L167.7 252H169.677L164.456 237.337H162.544L157.323 252H159.278ZM163.521 239.55L165.713 246.081H161.266L163.468 239.55H163.521Z" fill="white"/>
<path d="M1142 318H1135L1138.5 310L1142 318Z" fill="white"/>
<path d="M1134 377L1141 377L1137.5 385L1134 377Z" fill="white"/>
<path d="M1072.5 377L1072.5 384L1064.5 380.5L1072.5 377Z" fill="white"/>
<path d="M1203 384L1203 377L1211 380.5L1203 384Z" fill="white"/>
<path d="M298.822 237.337V252H303.527C307.781 252 309.973 249.465 309.973 244.663C309.973 239.851 307.792 237.337 303.527 237.337H298.822ZM300.702 239.013H303.42C306.535 239.013 308.028 240.925 308.028 244.663C308.028 248.509 306.46 250.324 303.42 250.324H300.702V239.013Z" fill="white"/>
</svg>
