<svg width="26" height="26" viewBox="0 0 26 26" fill="none" xmlns="http://www.w3.org/2000/svg">
<path d="M1 1.59961H25" stroke="#333333" stroke-width="1.92" stroke-miterlimit="10" stroke-linecap="round" stroke-linejoin="round"/>
<path d="M8.2002 24.4004L13.0002 22.0004V18.4004" stroke="#333333" stroke-width="1.92" stroke-miterlimit="10" stroke-linecap="round" stroke-linejoin="round"/>
<path d="M17.8 24.4L13 22" stroke="#333333" stroke-width="1.92" stroke-miterlimit="10" stroke-linecap="round" stroke-linejoin="round"/>
<path fill-rule="evenodd" clip-rule="evenodd" d="M5.68048 19.5996H20.3085C22.5885 19.5996 23.7885 18.3996 23.7885 16.1196V1.59961H2.18848V16.1196C2.20048 18.3996 3.40048 19.5996 5.68048 19.5996ZM9.4002 12.0396C9.4002 11.642 9.72255 11.3196 10.1202 11.3196H15.8802C16.2778 11.3196 16.6002 11.642 16.6002 12.0396C16.6002 12.4373 16.2778 12.7596 15.8802 12.7596H10.1202C9.72255 12.7596 9.4002 12.4373 9.4002 12.0396ZM8.2002 8.43961C7.80255 8.43961 7.4802 8.76196 7.4802 9.15961C7.4802 9.55725 7.80255 9.87961 8.2002 9.87961H17.8002C18.1978 9.87961 18.5202 9.55725 18.5202 9.15961C18.5202 8.76196 18.1978 8.43961 17.8002 8.43961H8.2002Z" fill="#333333"/>
</svg>
