<svg width="16" height="20" viewBox="0 0 16 20" fill="none" xmlns="http://www.w3.org/2000/svg">
<path fill-rule="evenodd" clip-rule="evenodd" d="M12.6663 10.1852C12.6663 12.4771 10.578 14.3334 7.99967 14.3334C5.42134 14.3334 3.33301 12.4771 3.33301 10.1852V4.48152C3.33301 2.18967 5.42134 0.333374 7.99967 0.333374C10.578 0.333374 12.6663 2.18967 12.6663 4.48152V10.1852ZM5.94731 5.81983C7.2922 5.32872 8.757 5.32872 10.1019 5.81983C10.4261 5.93823 10.7849 5.77137 10.9033 5.44713C11.0217 5.1229 10.8549 4.76407 10.5306 4.64567C8.90886 4.05344 7.14033 4.05344 5.51855 4.64567C5.19431 4.76407 5.02745 5.1229 5.14585 5.44713C5.26425 5.77137 5.62308 5.93823 5.94731 5.81983ZM9.29179 8.33694C8.40026 8.09177 7.45643 8.09177 6.5649 8.33694C6.23208 8.42847 5.88808 8.23286 5.79655 7.90003C5.70503 7.56721 5.90063 7.22321 6.23346 7.13168C7.34193 6.82685 8.51477 6.82685 9.62324 7.13168C9.95606 7.22321 10.1517 7.56721 10.0601 7.90003C9.96861 8.23286 9.62461 8.42847 9.29179 8.33694ZM1.33366 7.66705C1.70185 7.66705 2.00033 7.96552 2.00033 8.33371V9.78826C2.00033 13.0193 4.67937 15.667 8.00033 15.667C11.3213 15.667 14.0003 13.0193 14.0003 9.78826V8.33371C14.0003 7.96552 14.2988 7.66705 14.667 7.66705C15.0352 7.66705 15.3337 7.96552 15.3337 8.33371V9.78826C15.3337 13.5567 12.3913 16.6396 8.66626 16.9709C8.66647 16.9758 8.66663 16.9807 8.66673 16.9856C8.66684 16.9904 8.66689 16.9952 8.66689 17L8.66689 19C8.66689 19.3682 8.36841 19.6667 8.00022 19.6667C7.63203 19.6667 7.33355 19.3682 7.33355 19V17C7.33355 16.9903 7.33377 16.9805 7.33418 16.9709C3.60923 16.6395 0.666992 13.5566 0.666992 9.78826V8.33371C0.666992 7.96552 0.965469 7.66705 1.33366 7.66705Z" fill="#8265F6"/>
</svg>
