<svg width="16" height="20" viewBox="0 0 16 20" fill="none" xmlns="http://www.w3.org/2000/svg">
<path fill-rule="evenodd" clip-rule="evenodd" d="M12.6673 10.1849C12.6673 12.4767 10.579 14.333 8.00065 14.333C5.42232 14.333 3.33398 12.4767 3.33398 10.1849V4.48116C3.33398 2.1893 5.42232 0.333008 8.00065 0.333008C10.579 0.333008 12.6673 2.1893 12.6673 4.48116V10.1849ZM5.94829 5.81946C7.29317 5.32836 8.75797 5.32836 10.1029 5.81946C10.4271 5.93787 10.7859 5.771 10.9043 5.44677C11.0227 5.12253 10.8559 4.7637 10.5316 4.6453C8.90984 4.05308 7.14131 4.05308 5.51952 4.6453C5.19529 4.7637 5.02842 5.12253 5.14682 5.44677C5.26523 5.771 5.62405 5.93787 5.94829 5.81946ZM9.29277 8.33657C8.40124 8.0914 7.45741 8.0914 6.56588 8.33657C6.23306 8.4281 5.88905 8.23249 5.79753 7.89967C5.706 7.56685 5.90161 7.22284 6.23443 7.13132C7.3429 6.82649 8.51574 6.82649 9.62421 7.13132C9.95704 7.22284 10.1526 7.56685 10.0611 7.89967C9.96959 8.23249 9.62559 8.4281 9.29277 8.33657ZM1.33464 7.66668C1.70283 7.66668 2.0013 7.96516 2.0013 8.33335V9.78789C2.0013 13.0189 4.68035 15.6667 8.0013 15.6667C11.3223 15.6667 14.0013 13.0189 14.0013 9.78789V8.33335C14.0013 7.96516 14.2998 7.66668 14.668 7.66668C15.0362 7.66668 15.3346 7.96516 15.3346 8.33335V9.78789C15.3346 13.5563 12.3923 16.6392 8.66724 16.9705C8.66745 16.9754 8.66761 16.9803 8.66771 16.9852C8.66781 16.99 8.66786 16.9949 8.66786 16.9997L8.66786 18.9997C8.66786 19.3679 8.36939 19.6663 8.0012 19.6663C7.63301 19.6663 7.33453 19.3679 7.33453 18.9997V16.9997C7.33453 16.9899 7.33474 16.9802 7.33516 16.9705C3.61021 16.6391 0.667969 13.5562 0.667969 9.78789V8.33335C0.667969 7.96516 0.966446 7.66668 1.33464 7.66668Z" fill="#8265F6"/>
</svg>
