<svg width="20" height="16" viewBox="0 0 20 16" fill="none" xmlns="http://www.w3.org/2000/svg">
<path fill-rule="evenodd" clip-rule="evenodd" d="M5.1499 15.8348H14.8501C17.7602 15.8348 19.7002 14.4522 19.7002 11.2261V4.77397C19.7002 1.54789 17.7602 0.165283 14.8501 0.165283H5.1499C2.23984 0.165283 0.299805 1.54789 0.299805 4.77397V11.2261C0.299805 14.4522 2.23984 15.8348 5.1499 15.8348ZM15.1296 6.15876C15.4516 5.90158 15.5041 5.43206 15.2469 5.11006C14.9898 4.78807 14.5202 4.73553 14.1982 4.99271L11.2798 7.32375L11.2793 7.32413C10.5908 7.87181 9.40111 7.87191 8.71244 7.32442L5.80339 4.99344C5.4818 4.73575 5.0122 4.78756 4.75451 5.10915C4.49683 5.43075 4.54863 5.90034 4.87023 6.15803L7.78028 8.48981L7.78212 8.49128C9.01481 9.47264 10.9766 9.47264 12.2093 8.49128L12.2102 8.49054L15.1296 6.15876Z" fill="white"/>
</svg>
