<svg width="9" height="9" viewBox="0 0 9 9" fill="none" xmlns="http://www.w3.org/2000/svg">
    <circle cx="4.5" cy="4.5" r="4.5" fill="#8265F6"/>
    <path d="M6.02077 6.06548C6.01704 6.12893 6.00771 6.1961 5.99278 6.26701C5.98158 6.33792 5.94613 6.39577 5.88642 6.44055C5.84163 6.47787 5.79125 6.50026 5.73527 6.50773C5.67929 6.51519 5.62331 6.51146 5.56733 6.49653C5.51508 6.48533 5.4647 6.46667 5.41618 6.44055C5.36767 6.41069 5.32848 6.37524 5.29862 6.33419C5.17174 6.17744 5.05418 6.01697 4.94595 5.85276C4.84145 5.68482 4.73509 5.51688 4.62686 5.34894L4.15663 4.63799C4.09318 4.53722 4.02601 4.42526 3.9551 4.3021C3.88419 4.17522 3.81142 4.05766 3.73677 3.94943L3.71998 6.08788V6.13826C3.71998 6.19797 3.70878 6.25768 3.68639 6.31739C3.66773 6.37337 3.63414 6.42189 3.58563 6.46294C3.54831 6.4928 3.49979 6.51333 3.44008 6.52452C3.34678 6.54318 3.26841 6.53758 3.20496 6.50773C3.14525 6.47787 3.09673 6.43682 3.05941 6.38457C3.02583 6.33232 3.00157 6.27261 2.98664 6.20543C2.97544 6.13453 2.97358 6.06548 2.98104 5.99831V5.90314L2.99224 5.46649L2.99784 4.65478C3.00157 4.53536 3.00343 4.41406 3.00343 4.29091C3.00343 4.16402 3.00343 4.03526 3.00343 3.90464C2.9997 3.74417 2.9997 3.57436 3.00343 3.39522C3.0109 3.21609 3.01836 3.04815 3.02583 2.8914C3.03329 2.80556 3.05382 2.73279 3.0874 2.67308C3.10233 2.62083 3.14152 2.57605 3.20496 2.53873C3.24601 2.5126 3.29826 2.49581 3.36171 2.48834C3.42888 2.48088 3.48673 2.48275 3.53525 2.49394C3.55391 2.50141 3.57257 2.51074 3.59123 2.52193C3.60989 2.5294 3.62855 2.53873 3.64721 2.54992C3.66587 2.56485 3.68266 2.57978 3.69759 2.59471C3.71625 2.60963 3.73304 2.62643 3.74797 2.64509C3.76663 2.66375 3.78342 2.68427 3.79835 2.70667C3.81328 2.72533 3.82821 2.74399 3.84314 2.76265C3.85433 2.78504 3.86553 2.80556 3.87673 2.82422C3.88792 2.84288 3.90098 2.86154 3.91591 2.8802L3.97749 2.96977L5.27063 5.00746V4.63799C5.27063 4.51856 5.26877 4.39727 5.26504 4.27411C5.26504 4.14723 5.26317 4.0166 5.25944 3.88225C5.25944 3.72551 5.25944 3.55757 5.25944 3.37843C5.26317 3.19929 5.26877 3.03135 5.27623 2.87461C5.27623 2.81116 5.29489 2.73839 5.33221 2.65628C5.35087 2.60777 5.38259 2.56858 5.42738 2.53873C5.47216 2.50887 5.52255 2.48834 5.57853 2.47715C5.63451 2.46595 5.69049 2.46595 5.74647 2.47715C5.80245 2.48834 5.85096 2.51074 5.89202 2.54432C5.90321 2.55552 5.91441 2.56858 5.9256 2.58351C5.9368 2.59844 5.94613 2.61523 5.95359 2.63389C5.97225 2.68241 5.98345 2.72533 5.98718 2.76265C5.99838 2.81489 6.00398 2.86154 6.00398 2.9026C6.00398 3.3691 6.00398 3.84493 6.00398 4.33009C6.00771 4.81526 6.01144 5.29109 6.01517 5.75759C6.01517 5.80984 6.01704 5.86209 6.02077 5.91434C6.0245 5.96285 6.0245 6.01323 6.02077 6.06548Z" fill="white"/>
</svg>
