<svg width="12" height="18" viewBox="0 0 12 18" fill="none" xmlns="http://www.w3.org/2000/svg">
    <path d="M12 11.5385C12 11.7932 11.8208 12 11.6 12H6.8V17.0769C6.8 17.5874 6.4424 18 6 18C5.5576 18 5.2 17.5874 5.2 17.0769V12H0.4C0.2936 12 0.191997 11.9511 0.116797 11.8652C0.0415969 11.7794 0 11.6612 0 11.5385C0 9.62954 0.644023 7.83497 1.81362 6.48543L2.4 5.80889V3.4079C1.8744 2.67775 1.6 1.40585 1.6 0.461538C1.6 0.206769 1.7792 0 2 0H10C10.2208 0 10.4 0.206769 10.4 0.461538C10.4 1.40585 10.1256 2.67685 9.60078 3.407L9.6 5.80889L10.1864 6.48543C11.356 7.83589 12 9.63046 12 11.5385Z" fill="#8265F6"/>
</svg>
