<svg width="29" height="34" viewBox="0 0 29 34" fill="none" xmlns="http://www.w3.org/2000/svg">
<path d="M23.6981 8.90138C23.4069 9.98805 22.827 10.9353 22.058 11.661C21.7115 11.9991 21.3303 12.2927 20.9219 12.5137C20.7974 12.581 20.6797 12.6635 20.5485 12.7162C19.2896 13.3572 17.813 13.5361 16.3496 13.144C14.582 12.6704 13.2162 11.4503 12.5069 9.9247C12.4895 9.87347 12.4539 9.83293 12.4366 9.78169C12.3171 9.53226 12.2159 9.27229 12.1476 9.00553C11.8445 7.99255 11.8158 6.88222 12.107 5.79555C12.5962 3.96996 13.8752 2.55789 15.4916 1.85737C15.7923 1.72053 16.0996 1.61655 16.4137 1.54543C17.3822 1.29247 18.4268 1.27727 19.4555 1.55291C20.9044 1.94114 22.0686 2.8121 22.846 3.96768C22.9849 4.14467 23.1016 4.34684 23.2038 4.54504C23.8805 5.84447 24.1057 7.38005 23.6981 8.90138Z" fill="white" stroke="#3A3A3A" stroke-width="1.5" stroke-linecap="round" stroke-linejoin="round"/>
<path d="M15.4404 9.62757L16.5901 9.93563L17.1482 7.85302L18.0323 8.08992C19.3338 8.4426 20.053 7.86845 20.3577 6.73109C20.6576 5.61207 20.3534 4.73233 19.0745 4.38967L16.9933 3.83201L15.4404 9.62757ZM17.4391 6.76702L17.8442 5.25542L18.4283 5.41195C18.9918 5.56686 19.2476 5.9382 19.1198 6.39943C18.9989 6.86644 18.5887 7.07111 18.0233 6.92354L17.4391 6.76702Z" fill="#3A3A3A"/>
<path fill-rule="evenodd" clip-rule="evenodd" d="M9.5643 11C7.51988 11 5.8045 12.5416 5.587 14.5744L4.51704 24.5744C4.2641 26.9385 6.11679 29 8.49434 29H23.5228C25.5672 29 27.2825 27.4584 27.5 25.4256L28.2946 18H10.7935C10.3793 18 10.0435 17.6642 10.0435 17.25C10.0435 16.8358 10.3793 16.5 10.7935 16.5H28.455L28.57 15.4256C28.823 13.0615 26.9703 11 24.5927 11H9.5643Z" fill="#3A3A3A"/>
<path d="M6.24811 15.5083L6.77976 10.1993C6.89767 9.02182 5.97307 8 4.78971 8H1.5" stroke="#3A3A3A" stroke-width="1.5" stroke-miterlimit="10" stroke-linecap="round" stroke-linejoin="round"/>
<circle cx="9.90259" cy="32" r="2" fill="#3A3A3A"/>
<circle cx="20.9026" cy="32" r="2" fill="#3A3A3A"/>
</svg>
