<svg width="12" height="12" viewBox="0 0 12 12" fill="none" xmlns="http://www.w3.org/2000/svg">
<path d="M9.43318 2.72461C8.95271 2.72461 8.70369 3.04687 8.70369 3.04687V2.32617C8.70369 1.93683 8.32838 1.58789 7.93904 1.58789C7.20662 1.58789 7.08357 2.02148 7.08357 2.02148C7.08357 2.02148 7.07771 1.68164 7.02498 1.38867C6.97224 1.0957 6.59986 0.738281 6.21053 0.738281C5.4818 0.738281 5.20564 1.31543 5.25252 1.94531C5.25252 1.94531 5.00935 1.54687 4.48201 1.54687C4.09267 1.54687 3.54744 1.91602 3.61189 2.63379L3.74666 5.4668C3.74666 5.4668 3.35788 4.87927 3.02885 4.6875C2.69982 4.49573 2.20754 4.50432 1.93903 4.79297C1.62335 5.13229 1.56598 5.66408 1.79252 5.98828C2.4722 6.96094 3.43692 8.23166 3.62066 8.82422C4.08941 10.3359 5.46053 11.2433 6.73787 11.2433C8.27888 11.2433 9.89654 10.0815 10.025 8.29102L10.2916 3.74414C10.3209 3.35156 10.0162 2.72461 9.43318 2.72461Z" fill="#FFC83D"/>
<path d="M5.61758 1.75265C5.61393 1.5606 5.60956 1.33027 5.6582 1.12563C5.68765 1.00178 5.73256 0.90884 5.79255 0.848199C5.81712 0.823367 5.8469 0.801158 5.88459 0.784212C5.39951 0.932134 5.21405 1.42063 5.25313 1.94579C5.25313 1.94579 5.25081 1.94199 5.24612 1.93512L5.36168 4.801C5.36586 4.90447 5.45312 4.98497 5.55659 4.9808C5.66006 4.97662 5.74055 4.88936 5.73638 4.78589L5.61934 1.88336C5.61929 1.84258 5.61846 1.79871 5.61758 1.75265Z" fill="#D67D00"/>
<path d="M6.06466 0.750478C6.05365 0.750478 6.043 0.750754 6.0327 0.751289C6.04323 0.749743 6.05389 0.748336 6.06466 0.74707V0.750478Z" fill="#D67D00"/>
<path d="M7.08401 2.01402C7.07258 2.0837 7.06685 2.15383 7.06662 2.22272L6.96132 4.59177C6.95673 4.69522 7.03686 4.78281 7.14031 4.78741C7.24377 4.792 7.33136 4.71187 7.33595 4.60842L7.44161 2.23121V2.22704C7.44161 2.05319 7.49044 1.87981 7.57686 1.75539C7.6265 1.68392 7.68694 1.62988 7.75926 1.59795C7.18643 1.66169 7.08419 2.02197 7.08419 2.02197L7.08401 2.01402Z" fill="#D67D00"/>
<path d="M8.72376 3.0248C8.67814 3.18384 8.64807 3.37444 8.63714 3.60081L8.63708 3.60202L8.57263 5.14303C8.5683 5.24649 8.64867 5.33388 8.75213 5.3382C8.85559 5.34253 8.94298 5.26216 8.9473 5.1587L9.01173 3.6183C9.03137 3.21302 9.11672 2.98637 9.20157 2.86618C9.28243 2.75164 9.36341 2.73094 9.41036 2.73094V2.72534C9.02169 2.73388 8.78957 2.95299 8.72376 3.0248Z" fill="#D67D00"/>
<path d="M3.95912 6.21142C3.89166 6.21274 3.82577 6.1775 3.791 6.11428C3.60493 5.77597 3.17045 4.99316 2.94238 4.64352C2.97243 4.65686 3.00154 4.6717 3.02948 4.68798C3.35802 4.87946 3.74614 5.46555 3.74728 5.46727L3.61251 2.63427C3.56077 2.05809 3.90191 1.70656 4.23991 1.59029C4.16608 1.63691 4.1091 1.70883 4.06508 1.80534C3.98431 1.98243 3.95294 2.23583 3.97244 2.5311L3.97263 2.534L4.14838 6.01447C4.1536 6.11789 4.07399 6.20596 3.97057 6.21118C3.96673 6.21138 3.96291 6.21145 3.95912 6.21142Z" fill="#D67D00"/>
</svg>
