<svg width="28" height="25" viewBox="0 0 28 25" fill="none" xmlns="http://www.w3.org/2000/svg">
<path d="M14.3125 20.2402L14.3125 23.9902" stroke="#333333" stroke-width="2" stroke-linecap="round" stroke-linejoin="round"/>
<path fill-rule="evenodd" clip-rule="evenodd" d="M21.5966 0.0078125H6.38975C1.53069 0.0078125 0.3125 1.19176 0.3125 5.91426V14.3483C0.3125 19.0708 1.53069 20.2547 6.38975 20.2414H21.6102C26.4693 20.2414 27.6875 19.0708 27.6875 14.3349V5.91426C27.6875 1.19176 26.4693 0.0078125 21.5966 0.0078125ZM19.8648 13.2972C19.8916 13.1698 19.9084 13.0491 19.9151 12.935C19.9218 12.8411 19.9218 12.7506 19.9151 12.6634C19.9084 12.5695 19.9051 12.4755 19.9051 12.3816C19.8983 11.5432 19.8916 10.688 19.8849 9.81595V7.25027C19.8849 7.17648 19.8749 7.09264 19.8547 6.99873C19.848 6.93165 19.8279 6.85451 19.7944 6.76732C19.781 6.73378 19.7642 6.70359 19.7441 6.67676C19.7239 6.64993 19.7038 6.62645 19.6837 6.60633C19.6099 6.54596 19.5227 6.50572 19.4221 6.48559C19.3215 6.46547 19.2209 6.46547 19.1203 6.48559C19.0196 6.50572 18.9291 6.54261 18.8486 6.59627C18.7681 6.64993 18.7111 6.72036 18.6776 6.80756C18.6105 6.95513 18.5769 7.08593 18.5769 7.19996C18.5635 7.48168 18.5535 7.78353 18.5468 8.1055V9.01103C18.5535 9.25251 18.5568 9.48728 18.5568 9.71534C18.5635 9.93669 18.5669 10.1547 18.5669 10.3693V11.0334L16.2427 7.37101L16.132 7.21002C16.1052 7.17648 16.0817 7.14294 16.0616 7.10941C16.0414 7.07587 16.0213 7.03898 16.0012 6.99873L15.9207 6.89811C15.8939 6.85787 15.8637 6.82098 15.8301 6.78744C15.8033 6.7539 15.7731 6.72372 15.7396 6.69688C15.7128 6.67005 15.6826 6.64322 15.649 6.61639C15.6155 6.59627 15.582 6.5795 15.5484 6.56608C15.5149 6.54596 15.4813 6.52919 15.4478 6.51578C15.3606 6.49565 15.2566 6.4923 15.1359 6.50572C15.0219 6.51913 14.928 6.54932 14.8542 6.59627C14.7401 6.66335 14.6697 6.74384 14.6429 6.83775C14.5825 6.94507 14.5456 7.07587 14.5322 7.23014C14.5188 7.51187 14.5054 7.81371 14.492 8.13568C14.4853 8.45765 14.4853 8.76285 14.492 9.05128V9.74552C14.492 9.96688 14.4886 10.1849 14.4819 10.3995L14.4718 11.8584L14.4517 12.6432V12.8143C14.4383 12.935 14.4417 13.0591 14.4618 13.1866C14.4886 13.3073 14.5322 13.4146 14.5926 13.5085C14.6597 13.6024 14.7469 13.6762 14.8542 13.7299C14.9682 13.7835 15.1091 13.7936 15.2768 13.7601C15.3841 13.7399 15.4713 13.7031 15.5384 13.6494C15.6256 13.5756 15.6859 13.4884 15.7195 13.3878C15.7597 13.2805 15.7798 13.1731 15.7798 13.0658V12.9753L15.81 9.13177C15.9442 9.32629 16.075 9.53759 16.2024 9.76565C16.3299 9.987 16.4506 10.1882 16.5646 10.3693L17.4098 11.6472C17.6043 11.949 17.7955 12.2508 17.9833 12.5527C18.1778 12.8478 18.3891 13.1363 18.6172 13.418C18.6708 13.4918 18.7413 13.5555 18.8285 13.6091C18.9157 13.6561 19.0062 13.6896 19.1001 13.7098C19.2008 13.7366 19.3014 13.7433 19.402 13.7299C19.5026 13.7165 19.5931 13.6762 19.6736 13.6091C19.781 13.5287 19.8447 13.4247 19.8648 13.2972ZM11.0729 6.59627C10.7107 6.57615 10.3049 6.64993 9.85549 6.81762C9.57377 6.92495 9.32558 7.08593 9.11094 7.30058C8.903 7.50851 8.72525 7.74328 8.57768 8.00488C8.43011 8.26648 8.31608 8.53814 8.23559 8.81986C8.1618 9.10159 8.11485 9.36654 8.09473 9.61472C8.0746 9.88303 8.0746 10.1648 8.09473 10.4599C8.11485 10.755 8.1618 11.0502 8.23559 11.3453C8.30937 11.6337 8.41334 11.9121 8.54749 12.1804C8.68165 12.442 8.85269 12.6734 9.06063 12.8747C9.22832 13.0423 9.41278 13.1832 9.61401 13.2972C9.82195 13.4046 10.0366 13.4884 10.258 13.5488C10.4793 13.6024 10.704 13.6326 10.9321 13.6393C11.1601 13.6393 11.3815 13.6125 11.5961 13.5588C11.9114 13.4851 12.1998 13.3576 12.4614 13.1765C12.7297 12.9954 12.9477 12.7606 13.1154 12.4722C13.1892 12.3447 13.2529 12.2173 13.3066 12.0899C13.3603 11.9624 13.4072 11.8215 13.4475 11.6673C13.5145 11.4392 13.5615 11.191 13.5883 10.9227C13.6219 10.6544 13.6319 10.3828 13.6185 10.1077C13.6118 9.82602 13.5816 9.54429 13.5279 9.26257C13.4743 8.98085 13.3971 8.71254 13.2965 8.45765C13.1691 8.11556 13.0014 7.807 12.7935 7.53199C12.5922 7.25698 12.3474 7.03898 12.059 6.87799C11.7705 6.7103 11.4419 6.61639 11.0729 6.59627ZM12.3105 10.0574C12.3239 10.4532 12.2904 10.8087 12.2099 11.124C12.1696 11.3118 12.1093 11.4795 12.0288 11.627C11.8343 12.0362 11.5525 12.281 11.1836 12.3615C10.9556 12.4152 10.7241 12.4051 10.4894 12.3313C10.2613 12.2508 10.0601 12.11 9.88568 11.9087C9.77164 11.7746 9.68109 11.6237 9.61401 11.456C9.54694 11.2816 9.49328 11.1005 9.45303 10.9127C9.41949 10.7181 9.39937 10.527 9.39266 10.3392C9.38595 10.1446 9.38931 9.96017 9.40272 9.78577C9.40943 9.62479 9.42955 9.45709 9.46309 9.28269C9.50334 9.10829 9.55365 8.9406 9.61401 8.77962C9.68109 8.61863 9.76494 8.47442 9.86555 8.34697C9.97288 8.21953 10.1003 8.11891 10.2479 8.04513C10.4961 7.92439 10.7208 7.86402 10.922 7.86402C11.1232 7.86402 11.2976 7.90762 11.4452 7.99482C11.5995 8.08202 11.7303 8.20947 11.8376 8.37716C11.9516 8.53814 12.0455 8.72596 12.1193 8.9406C12.2334 9.2894 12.2971 9.66168 12.3105 10.0574Z" fill="#333333"/>
<path d="M8.6875 23.9902H19.9375" stroke="#333333" stroke-width="2" stroke-linecap="round" stroke-linejoin="round"/>
</svg>
