<svg width="20" height="20" viewBox="0 0 20 20" fill="none" xmlns="http://www.w3.org/2000/svg">
<path fill-rule="evenodd" clip-rule="evenodd" d="M15.3633 16.1372H14.6355C13.8695 16.1372 13.1418 16.4155 12.6055 16.9183L10.9681 18.4356C10.2212 19.1269 9.00515 19.1269 8.25826 18.4356L6.62083 16.9183C6.0846 16.4155 5.34729 16.1372 4.59082 16.1372H3.87266C2.28312 16.1372 1 14.9431 1 13.4707V3.66652C1 2.1941 2.28312 1 3.87266 1H15.3633C16.9528 1 18.2359 2.1941 18.2359 3.66652V13.4617C18.2359 14.9341 16.9528 16.1372 15.3633 16.1372ZM9.70574 8.18398H9.53999C8.37991 8.13979 7.46289 7.20065 7.46289 6.02949C7.46289 4.83623 8.42411 3.875 9.61733 3.875C10.8106 3.875 11.7718 4.84728 11.7718 6.02949C11.7828 7.20065 10.8658 8.15084 9.70574 8.18398ZM6.98119 12.5204C5.70679 11.7109 5.70679 10.392 6.98119 9.58255C8.43764 8.673 10.8044 8.673 12.2512 9.58255C13.5256 10.392 13.5256 11.7109 12.2512 12.5204C10.8044 13.439 8.42805 13.439 6.98119 12.5204Z" fill="#333333"/>
</svg>
