<svg width="26" height="24" viewBox="0 0 26 24" fill="none" xmlns="http://www.w3.org/2000/svg">
<path fill-rule="evenodd" clip-rule="evenodd" d="M13.0013 23.7543H5.42626C1.08876 23.7543 -0.723741 20.6543 1.37626 16.8668L5.27626 9.8418L8.95126 3.2418C11.1763 -0.770703 14.8263 -0.770703 17.0513 3.2418L20.7263 9.8543L24.6263 16.8793C26.7263 20.6668 24.9013 23.7668 20.5763 23.7668H13.0013V23.7543ZM13.002 7.24281C13.5534 7.24281 14.0005 7.68987 14.0005 8.24133V14.4913C14.0005 15.0428 13.5534 15.4899 13.002 15.4899C12.4505 15.4899 12.0034 15.0428 12.0034 14.4913V8.24133C12.0034 7.68987 12.4505 7.24281 13.002 7.24281ZM12.9951 16.9098C12.2598 16.9098 11.6638 17.5059 11.6638 18.2412C11.6638 18.9765 12.2598 19.5726 12.9951 19.5726H13.0063C13.7416 19.5726 14.3377 18.9765 14.3377 18.2412C14.3377 17.5059 13.7416 16.9098 13.0063 16.9098H12.9951Z" fill="#333333"/>
</svg>
