<svg width="26" height="24" viewBox="0 0 26 24" fill="none" xmlns="http://www.w3.org/2000/svg">
<path d="M15.7368 13.4118C15.7368 14.9647 14.5053 16.2353 13 16.2353C11.4947 16.2353 10.2632 14.9647 10.2632 13.4118C10.2632 11.8588 11.4947 10.5882 13 10.5882C14.5053 10.5882 15.7368 11.8588 15.7368 13.4118ZM26 10.5882V17.6471C26 21.1482 23.2358 24 19.8421 24H6.1579C2.76421 24 0 21.1482 0 17.6471V10.5882C0 7.21412 2.55896 4.44707 5.78844 4.24943L7.51262 1.56721C8.15578 0.593093 9.20948 0 10.359 0H15.641C16.7905 0 17.8442 0.593093 18.4874 1.56721L20.2116 4.24943C23.441 4.44707 26 7.21412 26 10.5882ZM18.4737 13.4118C18.4737 10.2918 16.0242 7.76471 13 7.76471C9.97579 7.76471 7.52632 10.2918 7.52632 13.4118C7.52632 16.5318 9.97579 19.0588 13 19.0588C16.0242 19.0588 18.4737 16.5318 18.4737 13.4118ZM22.5789 9.17647C22.5789 8.4 21.9632 7.76471 21.2105 7.76471C20.4579 7.76471 19.8421 8.4 19.8421 9.17647C19.8421 9.95294 20.4579 10.5882 21.2105 10.5882C21.9632 10.5882 22.5789 9.95294 22.5789 9.17647Z" fill="#333333"/>
</svg>
