<svg width="21" height="19" viewBox="0 0 21 19" fill="none" xmlns="http://www.w3.org/2000/svg">
<path fill-rule="evenodd" clip-rule="evenodd" d="M0.779297 8.62795V10.3696C0.779297 11.3988 1.60569 12.2498 2.62652 12.2498C4.38624 12.2498 5.10569 13.5165 4.22096 15.0701C3.71541 15.9608 4.0168 17.1186 4.90152 17.6332L6.58346 18.6128C7.35152 19.078 8.34319 18.8009 8.80013 18.0191L8.90707 17.8311C9.7918 16.2774 11.2307 16.2774 12.1057 17.8311L12.2126 18.0191C12.6696 18.8009 13.6612 19.078 14.4293 18.6128L16.1112 17.6332C16.996 17.1186 17.2974 15.9707 16.7918 15.0701C15.9071 13.5165 16.6265 12.2498 18.3862 12.2498C19.4071 12.2498 20.2335 11.3988 20.2335 10.3696V8.62795C20.2335 7.58889 19.3974 6.74774 18.3862 6.74774C16.6265 6.74774 15.9071 5.48107 16.7918 3.92743C17.2974 3.0368 16.996 1.87899 16.1112 1.36441L14.4293 0.38472C13.6612 -0.0803842 12.6696 0.196699 12.2126 0.97847L12.1057 1.16649C11.221 2.72014 9.78207 2.72014 8.90707 1.16649L8.80013 0.97847C8.34319 0.196699 7.35152 -0.0803842 6.58346 0.38472L4.90152 1.36441C4.0168 1.87899 3.71541 3.0368 4.22096 3.92743C5.10569 5.48107 4.38624 6.74774 2.62652 6.74774C1.60569 6.74774 0.779297 7.59878 0.779297 8.62795ZM13.4189 9.49817C13.4189 11.1378 12.1131 12.4669 10.5023 12.4669C8.89145 12.4669 7.58561 11.1378 7.58561 9.49817C7.58561 7.85857 8.89145 6.52942 10.5023 6.52942C12.1131 6.52942 13.4189 7.85857 13.4189 9.49817Z" fill="#333333"/>
</svg>
