<svg width="30" height="27" viewBox="0 0 30 27" fill="none" xmlns="http://www.w3.org/2000/svg">
<path d="M8.82779 15.6758H2.6471C1.19126 15.6758 0.00012207 16.9497 0.00012207 18.5068V26.9999H8.82779V15.6758Z" fill="#333333"/>
<path d="M16.7526 11.1172H13.2189C11.763 11.1172 10.5719 12.3083 10.5719 13.7642V26.9991H19.3996V13.7642C19.3996 12.3083 18.2217 11.1172 16.7526 11.1172Z" fill="#333333"/>
<path d="M27.324 18.9668H21.1433V26.9987H29.971V22.1796C29.971 20.4125 28.7798 18.9668 27.324 18.9668Z" fill="#333333"/>
<path d="M15.7278 0.607262L16.4748 2.11734C16.5735 2.33103 16.8413 2.53047 17.0668 2.55896L18.4199 2.7869C19.2798 2.92936 19.4912 3.5704 18.871 4.18298L17.8139 5.25143C17.6306 5.43663 17.532 5.77855 17.5883 6.02073L17.8843 7.33138C18.1239 8.37134 17.5742 8.77023 16.6721 8.22889L15.4036 7.47385C15.1781 7.33139 14.7975 7.33139 14.572 7.47385L13.3034 8.22889C12.4013 8.77023 11.8516 8.37134 12.0912 7.33138L12.3872 6.02073C12.4436 5.77855 12.3449 5.42238 12.1617 5.25143L11.1187 4.19724C10.4985 3.57042 10.6958 2.94358 11.5697 2.80112L12.9228 2.57322C13.1484 2.53048 13.4162 2.33104 13.5148 2.1316L14.2619 0.621479C14.6706 -0.20479 15.319 -0.20476 15.7278 0.607262Z" fill="#333333"/>
</svg>
