<svg width="24" height="22" viewBox="0 0 24 22" fill="none" xmlns="http://www.w3.org/2000/svg">
<path fill-rule="evenodd" clip-rule="evenodd" d="M11.1327 2.9272L11.0717 2.89092C8.95292 1.58035 5.16759 0.328821 2.66784 0.128103C1.25132 0.0100344 0.0966797 1.07266 0.0966797 2.47768V16.7404C0.0966797 17.8739 1.02516 18.9365 2.1679 19.0782L2.5131 19.1254C5.00916 19.4563 8.81681 20.6802 11.1327 21.8809L11.1327 2.9272ZM12.8673 21.8664C15.1903 20.6662 18.9576 19.4529 21.4397 19.1254L21.8325 19.0782C22.9753 18.9365 23.9038 17.8739 23.9038 16.7404V2.48948C23.9038 1.07266 22.7372 0.0218413 21.3207 0.13991H21.2493C18.7628 0.351309 14.9925 1.60242 12.8673 2.91713L12.8673 21.8664ZM2.66873 6.07814C2.66873 5.59915 3.05703 5.21085 3.53602 5.21085H6.13789C6.61688 5.21085 7.00518 5.59915 7.00518 6.07814C7.00518 6.55713 6.61688 6.94543 6.13789 6.94543H3.53602C3.05703 6.94543 2.66873 6.55713 2.66873 6.07814ZM3.53613 8.67959C3.05714 8.67959 2.66884 9.06788 2.66884 9.54688C2.66884 10.0259 3.05714 10.4142 3.53613 10.4142H7.00529C7.48428 10.4142 7.87258 10.0259 7.87258 9.54688C7.87258 9.06788 7.48428 8.67959 7.00529 8.67959H3.53613Z" fill="#333333"/>
</svg>
