<svg width="26" height="26" viewBox="0 0 26 26" fill="none" xmlns="http://www.w3.org/2000/svg">
<path fill-rule="evenodd" clip-rule="evenodd" d="M13 25.5C6.1 25.5 0.5 19.9 0.5 13C0.5 6.1 6.1 0.5 13 0.5C19.9 0.5 25.5 6.1 25.5 13C25.5 19.9 19.9 25.5 13 25.5ZM9.51204 11C8.39639 11 7.5 11.8986 7.5 13C7.5 14.1014 8.39639 15 9.51204 15C10.0166 15 10.4796 14.8122 10.8437 14.4955C11.2605 14.133 11.8921 14.177 12.2545 14.5937C12.617 15.0105 12.573 15.6421 12.1563 16.0045C11.4511 16.6178 10.5286 17 9.51204 17C7.29938 17 5.5 15.2136 5.5 13C5.5 10.7864 7.29938 9 9.51204 9C10.5286 9 11.4511 9.38215 12.1563 9.99546C12.573 10.3579 12.617 10.9895 12.2545 11.4063C11.8921 11.823 11.2605 11.867 10.8437 11.5045C10.4796 11.1878 10.0166 11 9.51204 11ZM15.5 13C15.5 11.8986 16.3964 11 17.512 11C18.0166 11 18.4796 11.1878 18.8437 11.5045C19.2605 11.867 19.8921 11.823 20.2545 11.4063C20.617 10.9895 20.573 10.3579 20.1563 9.99546C19.4511 9.38215 18.5286 9 17.512 9C15.2994 9 13.5 10.7864 13.5 13C13.5 15.2136 15.2994 17 17.512 17C18.5286 17 19.4511 16.6178 20.1563 16.0045C20.573 15.6421 20.617 15.0105 20.2545 14.5937C19.8921 14.177 19.2605 14.133 18.8437 14.4955C18.4796 14.8122 18.0166 15 17.512 15C16.3964 15 15.5 14.1014 15.5 13Z" fill="#333333"/>
</svg>
