<svg width="25" height="25" viewBox="0 0 25 25" fill="none" xmlns="http://www.w3.org/2000/svg">
<path fill-rule="evenodd" clip-rule="evenodd" d="M5.76923 0C2.58297 0 0 2.58297 0 5.76923V19.2308C0 21.9823 1.92621 24.2839 4.50374 24.8608C4.52763 24.8306 4.5535 24.8015 4.58136 24.7737L14.6763 14.6787C14.6767 14.6783 14.6771 14.6779 14.6775 14.6775C14.6779 14.6771 14.6783 14.6767 14.6787 14.6763L24.7737 4.58136C24.8015 4.5535 24.8306 4.52763 24.8608 4.50374C24.2839 1.92621 21.9823 0 19.2308 0H5.76923ZM15.3846 16.7988L7.18345 25H19.2308C20.4628 25 21.6046 24.6138 22.5417 23.9559L15.3846 16.7988ZM23.9559 22.5417L16.7988 15.3846L25 7.18345V19.2308C25 20.4628 24.6138 21.6046 23.9559 22.5417ZM11.8329 7.44892C11.0156 3.92728 5.72715 3.92728 4.90984 7.44892C4.42907 9.51623 5.73919 11.271 6.88101 12.3528C7.72236 13.146 9.03243 13.146 9.86176 12.3528C11.0036 11.271 12.3017 9.51623 11.8329 7.44892Z" fill="#333333"/>
<path d="M8.36584 8.31581H8.37664" stroke="#333333" stroke-width="1.92308" stroke-linecap="round" stroke-linejoin="round"/>
</svg>
