<svg width="25" height="24" viewBox="0 0 25 24" fill="none" xmlns="http://www.w3.org/2000/svg">
<path d="M9.91042 0.575092L1.92104 4.82215C-0.640345 6.1838 -0.640345 9.2313 1.92104 10.593L9.91042 14.84C11.3437 15.6073 13.706 15.6073 15.1393 14.84L23.0889 10.593C25.637 9.2313 25.637 6.1946 23.0889 4.83295L15.1393 0.585899C13.706 -0.192187 11.3437 -0.192187 9.91042 0.575092Z" fill="#333333"/>
<path fill-rule="evenodd" clip-rule="evenodd" d="M3.75421 13.7593L9.00016 16.4606C10.9351 17.4639 14.1242 17.4639 16.0592 16.4606L21.2461 13.7763V17.8191C21.2461 19.6772 19.9021 21.6669 18.2563 22.2522L13.8813 23.803C13.1133 24.0663 11.8652 24.0663 11.1109 23.803L6.73591 22.2522C5.09014 21.6669 3.74609 19.6772 3.74609 17.8191L3.75421 13.7593Z" fill="#333333"/>
<path d="M23.9883 15.6532L23.9883 7.83691" stroke="#333333" stroke-width="2" stroke-linecap="round" stroke-linejoin="round"/>
</svg>
