<svg width="30" height="30" viewBox="0 0 30 30" fill="none" xmlns="http://www.w3.org/2000/svg">
<path d="M13.1241 23.6649L11.5325 25.1208C10.2725 26.2839 11.3888 28 13.4115 28H16.5836C18.6063 28 19.7337 26.2757 18.4626 25.1208L16.871 23.6649C15.9205 22.7784 14.0857 22.7784 13.1241 23.6649Z" fill="#DDDDDD"/>
<path fill-rule="evenodd" clip-rule="evenodd" d="M25.6759 15.7254C27.6261 7.52478 20.4754 0.373933 12.2747 2.32409C8.42442 3.27417 5.27418 6.42455 4.3241 10.2749C2.96991 15.9694 6.004 21.1576 10.7308 23.1438L11.772 22.1914C12.7035 21.3345 13.9267 21 15.0019 21C16.0741 21 17.298 21.333 18.227 22.1946L19.2863 23.1636C22.4486 21.8471 24.8995 19.0468 25.6759 15.7254ZM12.9631 23.8124C14.2553 24.0534 15.628 24.0694 17.039 23.8185L16.8712 23.6649C15.9206 22.7784 14.0859 22.7784 13.1243 23.6649L12.9631 23.8124ZM15 15C16.1046 15 17 14.1046 17 13C17 11.8954 16.1046 11 15 11C13.8954 11 13 11.8954 13 13C13 14.1046 13.8954 15 15 15ZM15 17C17.2091 17 19 15.2091 19 13C19 10.7909 17.2091 9 15 9C12.7909 9 11 10.7909 11 13C11 15.2091 12.7909 17 15 17ZM15 19C18.3137 19 21 16.3137 21 13C21 9.68629 18.3137 7 15 7C11.6863 7 9 9.68629 9 13C9 16.3137 11.6863 19 15 19ZM21 9.00024C21.5523 9.00024 22 8.55253 22 8.00024C22 7.44796 21.5523 7.00024 21 7.00024C20.4477 7.00024 20 7.44796 20 8.00024C20 8.55253 20.4477 9.00024 21 9.00024Z" fill="#DDDDDD"/>
</svg>
