<svg width="26" height="24" viewBox="0 0 26 24" fill="none" xmlns="http://www.w3.org/2000/svg">
<path fill-rule="evenodd" clip-rule="evenodd" d="M0.8144 11.7896C0.906027 11.2922 1.08741 10.8133 1.3518 10.3772L3.49446 6.8429C4.2535 5.59086 5.61133 4.82617 7.07548 4.82617H18.9245C20.3887 4.82617 21.7465 5.59086 22.5055 6.8429L24.6482 10.3772C24.9126 10.8133 25.094 11.2922 25.1856 11.7896H0.8144ZM0.745117 13.1688V19.4934C0.745117 21.8062 2.62002 23.6811 4.93282 23.6811H21.0672C23.38 23.6811 25.2549 21.8062 25.2549 19.4934V13.1688H0.745117ZM18.7748 9.3345H7.22434C6.76564 9.3345 6.39264 8.9615 6.39264 8.50281C6.39264 8.04412 6.76564 7.67112 7.22434 7.67112H18.7773C19.236 7.67112 19.6065 8.04412 19.6065 8.50281C19.6065 8.9615 19.2335 9.3345 18.7773 9.3345H18.7748ZM12.076 19.3967C12.1879 19.5103 12.3364 19.5662 12.4832 19.5662C12.63 19.5662 12.7785 19.5086 12.8903 19.3967L15.5044 16.7826C15.7298 16.5572 15.7298 16.1937 15.5044 15.9683C15.279 15.7429 14.9156 15.7429 14.6901 15.9683L12.4832 18.1753L11.3072 16.9993C11.0818 16.7739 10.7183 16.7739 10.4929 16.9993C10.2675 17.2247 10.2675 17.5882 10.4929 17.8136L12.076 19.3967Z" fill="#333333"/>
<path d="M16.4286 0.320312H9.56892C8.70162 0.320312 7.99854 1.0234 7.99854 1.8907V6.93329C7.99854 7.80059 8.70162 8.50368 9.56893 8.50368H16.4286C17.2959 8.50368 17.999 7.80059 17.999 6.93329V1.8907C17.999 1.0234 17.2959 0.320312 16.4286 0.320312Z" fill="#333333"/>
</svg>
