<svg width="18" height="20" viewBox="0 0 18 20" fill="none" xmlns="http://www.w3.org/2000/svg">
<path fill-rule="evenodd" clip-rule="evenodd" d="M17.0735 14.2741V4.75803C17.0735 1.90321 15.6507 0 12.3309 0H4.74265C1.42279 0 0 1.90321 0 4.75803V14.2741C0 17.1289 1.42279 19.0321 4.74265 19.0321H12.3309C15.6507 19.0321 17.0735 17.1289 17.0735 14.2741ZM11.505 2.48915C11.505 2.15931 11.2376 1.89193 10.9077 1.89193C10.5779 1.89193 10.3105 2.15931 10.3105 2.48915V4.47989C10.3105 5.87718 11.4048 7.06785 12.8048 7.06785H14.7019C15.0317 7.06785 15.2991 6.80047 15.2991 6.47063C15.2991 6.14079 15.0317 5.87341 14.7019 5.87341H12.8048C12.1181 5.87341 11.505 5.27242 11.505 4.47989V2.48915ZM3.18724 10.9484C3.18724 10.6185 3.45463 10.3511 3.78447 10.3511H7.57858C7.90842 10.3511 8.17581 10.6185 8.17581 10.9484C8.17581 11.2782 7.90842 11.5456 7.57858 11.5456H3.78447C3.45463 11.5456 3.18724 11.2782 3.18724 10.9484ZM3.78424 14.3333C3.4544 14.3333 3.18702 14.6007 3.18702 14.9306C3.18702 15.2604 3.4544 15.5278 3.78424 15.5278H11.3725C11.7023 15.5278 11.9697 15.2604 11.9697 14.9306C11.9697 14.6007 11.7023 14.3333 11.3725 14.3333H3.78424Z" fill="#333333"/>
</svg>
