<svg width="24" height="26" viewBox="0 0 24 26" fill="none" xmlns="http://www.w3.org/2000/svg">
<path d="M21.5196 17.9287V12.1648C21.5196 6.47566 17.2489 1.84961 11.9999 1.84961C6.7509 1.84961 2.47705 6.47566 2.47705 12.1648V17.9287H21.5196Z" fill="#333333"/>
<path d="M14.1436 2.33786C13.7841 2.20463 13.4131 2.10101 13.0305 2.0418C11.9174 1.86416 10.8507 1.96778 9.85352 2.33786C10.1898 1.24242 11.0246 0.472656 11.9985 0.472656C12.9725 0.472656 13.8073 1.24242 14.1436 2.33786Z" fill="#333333"/>
<path d="M22.9935 19.5996H1.00653C0.451529 19.5996 0 20.043 0 20.5879C0 21.1329 0.451529 21.5762 1.00653 21.5762H7.46904C7.7387 23.7991 9.6671 25.5294 12 25.5294C14.3329 25.5294 16.2644 23.7991 16.531 21.5762H22.9935C23.5485 21.5762 24 21.1329 24 20.5879C24 20.043 23.5485 19.5996 22.9935 19.5996Z" fill="#333333"/>
</svg>
