<svg width="25" height="25" viewBox="0 0 25 25" fill="none" xmlns="http://www.w3.org/2000/svg">
<path fill-rule="evenodd" clip-rule="evenodd" d="M22.9412 8.80901C22.4819 8.93339 21.9987 8.99976 21.5 8.99976C18.4624 8.99976 16 6.53732 16 3.49976C16 3.00108 16.0664 2.51791 16.1907 2.05859H6.11765C2.73896 2.05859 0 4.79756 0 8.17624V18.8821C0 22.2608 2.73897 24.9998 6.11765 24.9998H16.8235C20.2022 24.9998 22.9412 22.2608 22.9412 18.8821V8.80901ZM5.35303 13.0588C4.80074 13.0588 4.35303 13.5066 4.35303 14.0588C4.35303 14.6111 4.80074 15.0588 5.35303 15.0588H10.1324C10.6847 15.0588 11.1324 14.6111 11.1324 14.0588C11.1324 13.5066 10.6847 13.0588 10.1324 13.0588H5.35303ZM4.35303 18.8823C4.35303 18.33 4.80074 17.8823 5.35303 17.8823H13.956C14.5083 17.8823 14.956 18.33 14.956 18.8823C14.956 19.4346 14.5083 19.8823 13.956 19.8823H5.35303C4.80074 19.8823 4.35303 19.4346 4.35303 18.8823Z" fill="#333333"/>
<path d="M21.5 7C23.433 7 25 5.433 25 3.5C25 1.567 23.433 0 21.5 0C19.567 0 18 1.567 18 3.5C18 5.433 19.567 7 21.5 7Z" fill="#333333"/>
</svg>
