<svg width="26" height="26" viewBox="0 0 26 26" fill="none" xmlns="http://www.w3.org/2000/svg">
<path fill-rule="evenodd" clip-rule="evenodd" d="M25.5 9.25V16.75C25.5 23 23 25.5 16.75 25.5H9.25C3 25.5 0.5 23 0.5 16.75V9.25C0.5 3 3 0.5 9.25 0.5H16.75C23 0.5 25.5 3 25.5 9.25ZM16.6391 7.15364L13.9913 6.37183C13.12 6.11122 12.4185 6.5723 12.4185 7.37419V7.99565C12.4185 8.05261 12.4231 8.10993 12.4321 8.16719V13.6809C12.0868 13.5653 11.7121 13.502 11.3206 13.502C9.59453 13.502 8.19531 14.7327 8.19531 16.251C8.19531 17.7692 9.59453 19 11.3206 19C13.0466 19 14.4458 17.7692 14.4458 16.251C14.4458 16.1637 14.4412 16.0773 14.4321 15.9921V9.67943L16.2318 10.2108C17.0918 10.4714 17.8047 10.0204 17.8047 9.20846V8.587C17.8047 7.98559 17.2841 7.34409 16.6391 7.15364Z" fill="#333333"/>
</svg>
