<svg width="20" height="22" viewBox="0 0 20 22" fill="none" xmlns="http://www.w3.org/2000/svg">
<path fill-rule="evenodd" clip-rule="evenodd" d="M7.66119 0.278245C14.6988 -1.39532 20.8352 4.74131 19.1616 11.7789C18.5085 14.5727 16.4749 16.9369 13.8389 18.0935L12.7694 17.1152C11.9722 16.3757 10.9218 16.09 10.0017 16.09C9.079 16.09 8.02928 16.377 7.22988 17.1124L6.17631 18.0761C2.21174 16.3229 -0.308591 11.9237 0.838192 7.10135C1.65352 3.79713 4.35696 1.09357 7.66119 0.278245ZM11.9452 18.6873C10.5948 18.9543 9.2826 18.9356 8.05836 18.6806L8.39039 18.3769C9.2156 17.6161 10.7901 17.6161 11.6059 18.3769L11.9452 18.6873ZM9.99991 12.8727C11.8957 12.8727 13.4326 11.3358 13.4326 9.43998C13.4326 7.54416 11.8957 6.0073 9.99991 6.0073C8.1041 6.0073 6.56724 7.54416 6.56724 9.43998C6.56724 11.3358 8.1041 12.8727 9.99991 12.8727ZM9.99991 14.589C12.8436 14.589 15.1489 12.2837 15.1489 9.43998C15.1489 6.59626 12.8436 4.29097 9.99991 4.29097C7.15619 4.29097 4.8509 6.59626 4.8509 9.43998C4.8509 12.2837 7.15619 14.589 9.99991 14.589ZM9.99908 11.1555C10.947 11.1555 11.7154 10.387 11.7154 9.43914C11.7154 8.49123 10.947 7.7228 9.99908 7.7228C9.05117 7.7228 8.28274 8.49123 8.28274 9.43914C8.28274 10.387 9.05117 11.1555 9.99908 11.1555Z" fill="white"/>
<path d="M8.38878 18.2797L7.02292 19.5291C5.94161 20.5272 6.89961 21.9999 8.63539 21.9999H11.3576C13.0934 21.9999 14.0609 20.5202 12.9701 19.5291L11.6042 18.2797C10.7885 17.5189 9.21399 17.5189 8.38878 18.2797Z" fill="white"/>
</svg>
