<svg width="22" height="28" viewBox="0 0 22 28" fill="none" xmlns="http://www.w3.org/2000/svg">
<path fill-rule="evenodd" clip-rule="evenodd" d="M21.3516 15.5558V5.51791C21.3516 4.24746 20.3217 3.21755 19.0513 3.21755H11.4649C10.8038 3.21755 10.1747 2.93315 9.73795 2.43688L8.81158 1.38419C8.37486 0.887918 7.74574 0.603516 7.08468 0.603516H2.94879C1.67834 0.603516 0.648438 1.63342 0.648438 2.90387V3.21755V15.5558C0.648438 16.8263 1.67834 17.8562 2.94879 17.8562H19.0513C20.3217 17.8562 21.3516 16.8263 21.3516 15.5558ZM14.2177 10.7738C14.2177 12.5506 12.7773 13.991 11.0005 13.991C9.22361 13.991 7.7832 12.5506 7.7832 10.7738C7.7832 8.99693 9.22361 7.55652 11.0005 7.55652C12.7773 7.55652 14.2177 8.99693 14.2177 10.7738ZM4.09243 2.36356C3.54015 2.36356 3.09243 2.81128 3.09243 3.36356C3.09243 3.91585 3.54015 4.36356 4.09243 4.36356H5.58599C6.13827 4.36356 6.58599 3.91585 6.58599 3.36356C6.58599 2.81128 6.13827 2.36356 5.58599 2.36356H4.09243Z" fill="#333333"/>
<path d="M12.6089 10.7727C12.6089 11.6611 11.8886 12.3813 11.0002 12.3813C10.1118 12.3813 9.3916 11.6611 9.3916 10.7727C9.3916 9.88427 10.1118 9.16406 11.0002 9.16406C11.8886 9.16406 12.6089 9.88427 12.6089 10.7727Z" fill="#333333"/>
<rect x="4.54639" y="19.0918" width="12.8286" height="2.94614" rx="1.47307" fill="#333333"/>
<rect x="9.35669" y="19.9004" width="3.20715" height="6.41431" rx="1.60358" fill="#333333"/>
<rect x="11.3701" y="21.0332" width="3.20715" height="8.9996" rx="1.60358" transform="rotate(-45 11.3701 21.0332)" fill="#333333"/>
<rect width="3.20715" height="8.9996" rx="1.60358" transform="matrix(-0.707107 -0.707107 -0.707107 0.707107 10.6296 21.0332)" fill="#333333"/>
</svg>
