<svg width="26" height="24" viewBox="0 0 26 24" fill="none" xmlns="http://www.w3.org/2000/svg">
<path d="M25.5 24H0.5V20.25C0.5 19.5625 1.0625 19 1.75 19H24.25C24.9375 19 25.5 19.5625 25.5 20.25V24Z" fill="#333333"/>
<rect x="3.54517" y="10.5312" width="4.72727" height="9.45455" fill="#333333"/>
<rect x="17.7271" y="10.5312" width="4.72727" height="9.45455" fill="#333333"/>
<rect x="10.6362" y="10.5312" width="4.72727" height="9.45455" fill="#333333"/>
<path fill-rule="evenodd" clip-rule="evenodd" d="M24.244 4.5185L13.444 0.0740743C13.204 -0.0246914 12.796 -0.0246914 12.556 0.0740743L1.75601 4.5185C1.33601 4.69134 1 5.20985 1 5.66664V9.76543C1 10.4444 1.54 11 2.2 11H23.8C24.46 11 25 10.4444 25 9.76543V5.66664C25 5.20985 24.664 4.69134 24.244 4.5185ZM14.7727 5.80395C14.7727 6.783 13.9791 7.57668 13 7.57668C12.021 7.57668 11.2273 6.783 11.2273 5.80395C11.2273 4.8249 12.021 4.03122 13 4.03122C13.9791 4.03122 14.7727 4.8249 14.7727 5.80395Z" fill="#333333"/>
</svg>
