<svg width="25" height="27" viewBox="0 0 25 27" fill="none" xmlns="http://www.w3.org/2000/svg">
<path fill-rule="evenodd" clip-rule="evenodd" d="M9.57648 0.341333C18.3734 -1.71259 26.044 5.81873 23.952 14.4557C23.1357 17.8845 20.5936 20.786 17.2986 22.2055L15.9618 21.0048C14.9652 20.0973 13.6523 19.7466 12.5021 19.7466C11.3487 19.7466 10.0366 20.0989 9.03735 21.0014L7.72038 22.1842C2.76467 20.0325 -0.385738 14.6335 1.04774 8.71514C2.0669 4.65997 5.4462 1.34196 9.57648 0.341333ZM14.9315 22.9343C13.2434 23.262 11.6033 23.239 10.0729 22.9261L10.488 22.5533C11.5195 21.6196 13.4877 21.6196 14.5073 22.5533L14.9315 22.9343ZM12.4999 16.1882C15.1365 16.1882 17.2198 14.0978 17.2198 11.5853C17.2198 9.07272 15.1365 6.98237 12.4999 6.98237C9.86332 6.98237 7.77997 9.07272 7.77997 11.5853C7.77997 14.0978 9.86332 16.1882 12.4999 16.1882ZM12.4999 17.9045C16.0545 17.9045 18.9362 15.0753 18.9362 11.5853C18.9362 8.09526 16.0545 5.26604 12.4999 5.26604C8.94524 5.26604 6.06363 8.09526 6.06363 11.5853C6.06363 15.0753 8.94524 17.9045 12.4999 17.9045ZM12.4988 13.6907C13.6837 13.6907 14.6443 12.7476 14.6443 11.5842C14.6443 10.4209 13.6837 9.47783 12.4988 9.47783C11.314 9.47783 10.3534 10.4209 10.3534 11.5842C10.3534 12.7476 11.314 13.6907 12.4988 13.6907Z" fill="#333333"/>
<path d="M10.486 22.4347L8.77864 23.968C7.42701 25.193 8.62451 27.0004 10.7942 27.0004H14.197C16.3668 27.0004 17.5761 25.1844 16.2126 23.968L14.5053 22.4347C13.4857 21.5009 11.5175 21.5009 10.486 22.4347Z" fill="#333333"/>
</svg>
