<svg width="26" height="26" viewBox="0 0 26 26" fill="none" xmlns="http://www.w3.org/2000/svg">
<path d="M1 1.59961H25" stroke="#333333" stroke-width="1.92" stroke-miterlimit="10" stroke-linecap="round" stroke-linejoin="round"/>
<path d="M8.2002 24.4004L13.0002 22.0004V18.4004" stroke="#333333" stroke-width="1.92" stroke-miterlimit="10" stroke-linecap="round" stroke-linejoin="round"/>
<path d="M17.8 24.4L13 22" stroke="#333333" stroke-width="1.92" stroke-miterlimit="10" stroke-linecap="round" stroke-linejoin="round"/>
<path fill-rule="evenodd" clip-rule="evenodd" d="M5.68048 19.5996H20.3085C22.5885 19.5996 23.7885 18.3996 23.7885 16.1196V1.59961H2.18848V16.1196C2.20048 18.3996 3.40048 19.5996 5.68048 19.5996ZM12.9893 10.0732C14.37 10.0732 15.4893 8.95393 15.4893 7.57322C15.4893 6.19251 14.37 5.07322 12.9893 5.07322C11.6085 5.07322 10.4893 6.19251 10.4893 7.57322C10.4893 8.95393 11.6085 10.0732 12.9893 10.0732ZM13.9703 11.3064C16.2978 11.5478 17.4932 13.2564 17.4932 15.2564H8.49316C8.49316 13.2564 10.1517 11.4931 12.016 11.3064C12.6717 11.2397 13.3274 11.2397 13.9703 11.3064Z" fill="#333333"/>
</svg>
