<svg width="28" height="26" viewBox="0 0 28 26" fill="none" xmlns="http://www.w3.org/2000/svg">
<path fill-rule="evenodd" clip-rule="evenodd" d="M18.7263 0.640625H20.3818C24.1249 0.640625 27.1614 3.67308 27.1614 7.41621V12.9811C27.1614 13.2573 26.9376 13.4811 26.6614 13.4811H22.5252C22.2491 13.4811 22.0252 13.705 22.0252 13.9811V24.8606C22.0252 25.1368 21.8014 25.3606 21.5252 25.3606H6.47458C6.19844 25.3606 5.97458 25.1368 5.97458 24.8606V13.9811C5.97458 13.705 5.75073 13.4811 5.47458 13.4811H1.33838C1.06224 13.4811 0.838379 13.2573 0.838379 12.9811V7.41621C0.838379 3.67308 3.87084 0.640625 7.61397 0.640625H9.27347C9.54191 0.640625 9.75912 0.853742 9.80158 1.1188C10.1077 3.03015 11.7629 4.49278 13.7596 4.49278H14.2402C16.2406 4.49278 17.8926 3.03015 18.1983 1.11881C18.2407 0.85374 18.4579 0.640625 18.7263 0.640625ZM12.1794 10.7207C11.0194 11.0907 10.6094 12.4607 10.9594 13.5607C11.5294 15.3307 13.4294 16.2207 13.9694 16.2207C14.4994 16.2207 16.4194 15.3107 16.9694 13.5607C17.3194 12.4607 16.9094 11.0907 15.7494 10.7207C15.1494 10.5307 14.3694 10.6707 13.9694 11.2807C13.5394 10.6907 12.7894 10.5207 12.1794 10.7207Z" fill="#333333"/>
</svg>
