<svg width="26" height="26" viewBox="0 0 26 26" fill="none" xmlns="http://www.w3.org/2000/svg">
<path fill-rule="evenodd" clip-rule="evenodd" d="M0.5 16.75C0.5 23 3 25.5 9.25 25.5H16.75C23 25.5 25.5 23 25.5 16.75V9.25C25.5 3 23 0.5 16.75 0.5H9.25C3 0.5 0.5 3 0.5 9.25V16.75ZM7 13C7 12.4477 7.44772 12 8 12H12V8C12 7.44772 12.4477 7 13 7C13.5523 7 14 7.44772 14 8V12H18C18.5523 12 19 12.4477 19 13C19 13.5523 18.5523 14 18 14H14V18C14 18.5523 13.5523 19 13 19C12.4477 19 12 18.5523 12 18V14H8C7.44772 14 7 13.5523 7 13Z" fill="#333333"/>
</svg>
