<svg width="24" height="24" viewBox="0 0 24 24" fill="none" xmlns="http://www.w3.org/2000/svg">
<path fill-rule="evenodd" clip-rule="evenodd" d="M24 12C24 18.6274 18.6274 24 12 24C5.37258 24 0 18.6274 0 12C0 5.37258 5.37258 0 12 0C18.6274 0 24 5.37258 24 12ZM13.5312 8C13.5312 7.44772 13.0835 7 12.5312 7C11.979 7 11.5312 7.44772 11.5312 8V11.0225C11.5312 11.8185 11.1233 12.554 10.4366 12.9527L10.4209 12.962L7.95095 14.457C7.47847 14.743 7.32728 15.3578 7.61325 15.8303C7.89922 16.3028 8.51407 16.454 8.98655 16.168L11.4493 14.6774C12.7724 13.905 13.5312 12.4984 13.5312 11.0225V8Z" fill="#333333"/>
</svg>
