<svg width="17" height="17" viewBox="0 0 17 17" fill="none" xmlns="http://www.w3.org/2000/svg">
<path d="M6.23341 9.84583V12.8208C6.23341 15.3 7.02675 16.2917 9.01008 16.2917H11.3901C13.3734 16.2917 14.1667 15.3 14.1667 12.8208V9.84583C14.1667 7.36667 13.3734 6.375 11.3901 6.375H9.01008M6.23341 9.84583C6.23341 7.36667 7.02675 6.375 9.01008 6.375M6.23341 9.84583V12.0417H5.61008C3.62675 12.0417 2.83341 11.05 2.83341 8.57083V5.59583C2.83341 3.11667 3.62675 2.125 5.61008 2.125H7.99008C9.97341 2.125 10.7667 3.11667 10.7667 5.59583V6.375H9.01008" stroke="black" stroke-opacity="0.2" stroke-width="1.0625" stroke-linecap="round" stroke-linejoin="round"/>
</svg>
