<svg width="20" height="20" viewBox="0 0 20 20" fill="none" xmlns="http://www.w3.org/2000/svg">
<path d="M13.3346 10.5746V15.0663C13.3346 17.0163 12.0346 18.3079 10.093 18.3079H4.90964C2.96797 18.3079 1.66797 17.0163 1.66797 15.0663V8.59128C1.66797 6.64128 2.96797 5.34961 4.90964 5.34961H8.1013C8.95964 5.34961 9.78464 5.69128 10.393 6.29961L12.3846 8.28294C12.993 8.89128 13.3346 9.71628 13.3346 10.5746Z" stroke="#333333" stroke-width="1.5" stroke-linecap="round" stroke-linejoin="round"/>
<path d="M18.3346 6.87396V11.3656C18.3346 13.3073 17.0346 14.6073 15.093 14.6073H13.3346V10.574C13.3346 9.71562 12.993 8.89062 12.3846 8.28229L10.393 6.29896C9.78464 5.69063 8.95964 5.34896 8.1013 5.34896H6.66797V4.88229C6.66797 2.94063 7.96797 1.64062 9.90964 1.64062H13.1013C13.9596 1.64062 14.7846 1.98229 15.393 2.59062L17.3846 4.58229C17.993 5.19063 18.3346 6.01563 18.3346 6.87396Z" stroke="#333333" stroke-width="1.5" stroke-linecap="round" stroke-linejoin="round"/>
</svg>
