<svg width="24" height="26" viewBox="0 0 24 26" fill="none" xmlns="http://www.w3.org/2000/svg">
<path fill-rule="evenodd" clip-rule="evenodd" d="M23.3571 8.72504V17.275C23.3571 18.675 22.6071 19.9751 21.3946 20.6876L13.9696 24.975C12.7571 25.675 11.257 25.675 10.032 24.975L2.60704 20.6876C1.39454 19.9876 0.644531 18.6875 0.644531 17.275V8.72504C0.644531 7.32504 1.39454 6.02499 2.60704 5.31249L10.032 1.025C11.2445 0.325 12.7446 0.325 13.9696 1.025L21.3946 5.31249C22.6071 6.02499 23.3571 7.31254 23.3571 8.72504ZM7.91046 15.3029C7.52557 15.3029 7.14692 15.2322 6.78699 15.0907C5.36394 14.5352 4.56711 13.0477 4.88959 11.556C4.93328 11.3541 5.06227 11.1815 5.24535 11.0837C5.42635 10.9859 5.64272 10.9734 5.83413 11.0483L10.2281 12.7647C10.4195 12.8396 10.5693 12.9956 10.638 13.1912C10.7046 13.3868 10.6837 13.6011 10.5797 13.7779C10.0263 14.7183 9.00271 15.3029 7.91254 15.3029H7.91046ZM13.4339 13.7779C13.9873 14.7183 15.0088 15.3029 16.1011 15.3029C16.488 15.3029 16.8646 15.2322 17.2266 15.0907C18.6476 14.5352 19.4465 13.0477 19.124 11.556C19.0803 11.3541 18.9492 11.1815 18.7682 11.0837C18.5872 10.9859 18.3709 10.9734 18.1795 11.0483L13.7855 12.7647C13.592 12.8396 13.4422 12.9956 13.3756 13.1912C13.307 13.3847 13.3298 13.6011 13.4339 13.7779Z" fill="#333333"/>
</svg>
