<svg width="24" height="24" viewBox="0 0 24 24" fill="none" xmlns="http://www.w3.org/2000/svg">
<path fill-rule="evenodd" clip-rule="evenodd" d="M0 8C0 3.58172 3.58172 0 8 0H16C20.4183 0 24 3.58172 24 8V16C24 20.4183 20.4183 24 16 24H8C3.58172 24 0 20.4183 0 16V8ZM8.08257 13.5007C8.63486 13.5007 9.08257 13.9484 9.08257 14.5007V18.6686C9.08257 19.2209 8.63486 19.6686 8.08257 19.6686C7.53029 19.6686 7.08257 19.2209 7.08257 18.6686V14.5007C7.08257 13.9484 7.53029 13.5007 8.08257 13.5007ZM14.9178 11.1662C14.9178 11.7185 15.3656 12.1662 15.9178 12.1662C16.4701 12.1662 16.9178 11.7185 16.9178 11.1662V5.33112C16.9178 4.77884 16.4701 4.33112 15.9178 4.33112C15.3656 4.33112 14.9178 4.77884 14.9178 5.33112V11.1662ZM8.08257 4.33125C8.63486 4.33125 9.08257 4.77897 9.08257 5.33125V9.4669H9.74974C10.302 9.4669 10.7497 9.91462 10.7497 10.4669C10.7497 11.0192 10.302 11.4669 9.74974 11.4669H6.41541C5.86312 11.4669 5.41541 11.0192 5.41541 10.4669C5.41541 9.91462 5.86312 9.4669 6.41541 9.4669H7.08258L7.08257 5.33125C7.08257 4.77897 7.53029 4.33125 8.08257 4.33125ZM14.9178 18.6682C14.9178 19.2205 15.3656 19.6682 15.9178 19.6682C16.4701 19.6682 16.9178 19.2205 16.9178 18.6682V16.2201H17.5847C18.137 16.2201 18.5847 15.7724 18.5847 15.2201C18.5847 14.6678 18.137 14.2201 17.5847 14.2201H14.2504C13.6981 14.2201 13.2504 14.6678 13.2504 15.2201C13.2504 15.7724 13.6981 16.2201 14.2504 16.2201H14.9178V18.6682Z" fill="#333333"/>
</svg>
