<svg width="28" height="25" viewBox="0 0 28 25" fill="none" xmlns="http://www.w3.org/2000/svg">
<path d="M23.7938 21.1641H4.20422C3.38607 21.1641 2.72266 21.8275 2.72266 22.6456C2.72266 23.4638 3.38607 24.1272 4.20422 24.1272H23.7938C24.612 24.1272 25.2754 23.4638 25.2754 22.6456C25.2754 21.8275 24.612 21.1641 23.7938 21.1641Z" fill="#333333"/>
<path d="M25.8451 3.09483C24.6549 3.09483 23.6919 4.0595 23.6919 5.24804C23.6919 5.67605 23.8187 6.07443 24.0343 6.41025L18.4027 10.6294L15.1894 3.94756C15.7705 3.56235 16.154 2.90223 16.154 2.15321C16.154 0.96302 15.1894 0 14.0008 0C12.8123 0 11.8476 0.964666 11.8476 2.15321C11.8476 2.90223 12.2312 3.56235 12.8123 3.94756L9.59892 10.6294L3.96731 6.41025C4.18296 6.07443 4.30972 5.67605 4.30972 5.24804C4.30972 4.0595 3.34505 3.09483 2.15651 3.09483C0.967958 3.09483 0 4.0595 0 5.24804C0 6.34934 0.826386 7.25475 1.89312 7.3848L4.02164 19.8382H23.9784L26.1069 7.3848C27.1736 7.25475 28 6.34934 28 5.24804C28 4.0595 27.0353 3.09483 25.8468 3.09483H25.8451ZM13.9992 16.0602C12.9687 16.0602 12.134 15.2256 12.134 14.1951C12.134 13.1646 12.9687 12.3299 13.9992 12.3299C15.0297 12.3299 15.8643 13.1646 15.8643 14.1951C15.8643 15.2256 15.0297 16.0602 13.9992 16.0602Z" fill="#333333"/>
</svg>
