<svg width="30" height="27" viewBox="0 0 30 27" fill="none" xmlns="http://www.w3.org/2000/svg">
<path fill-rule="evenodd" clip-rule="evenodd" d="M17.6603 15.8877C16.3188 15.3332 14.8707 15.04 13.3926 15.04C10.4089 15.04 7.54741 16.2348 5.43763 18.3614C3.32784 20.4881 2.14258 23.3725 2.14258 26.38L13.3926 26.38H18.3086C17.7681 25.9069 17.2984 25.3536 16.9311 24.7508C16.201 23.6075 15.7866 22.2546 15.7866 20.8254C15.7866 18.9508 16.4907 17.2185 17.6603 15.8877Z" fill="#333333"/>
<path fill-rule="evenodd" clip-rule="evenodd" d="M29.8098 22.2429C29.9361 21.7856 29.9993 21.313 29.9993 20.8252C29.9993 19.2703 29.3835 17.8374 28.3731 16.755C27.2364 15.505 25.5471 14.7275 23.6842 14.7275C21.916 14.7275 20.3057 15.4288 19.1532 16.5721C18.048 17.6697 17.3691 19.1788 17.3691 20.8252C17.3691 21.9685 17.7007 23.0509 18.2848 23.9655C18.6006 24.4838 19.0111 24.9563 19.4847 25.3527C20.5898 26.3283 22.0581 26.9229 23.6842 26.9229C25.9892 26.9229 27.9943 25.7338 29.0836 23.9655C29.4151 23.4472 29.6677 22.8527 29.8098 22.2429ZM24.339 18.5532C24.339 18.1898 24.0445 17.8953 23.6811 17.8953C23.3178 17.8953 23.0232 18.1898 23.0232 18.5532V20.1209H21.3284C20.9651 20.1209 20.6705 20.4154 20.6705 20.7788C20.6705 21.1421 20.9651 21.4367 21.3284 21.4367H23.0232V23.1112C23.0232 23.4745 23.3178 23.7691 23.6811 23.7691C24.0445 23.7691 24.339 23.4745 24.339 23.1112V21.4367H26.0331C26.3964 21.4367 26.691 21.1421 26.691 20.7788C26.691 20.4154 26.3964 20.1209 26.0331 20.1209H24.339V18.5532Z" fill="#333333"/>
<ellipse cx="13.9284" cy="8.48008" rx="5.35714" ry="5.4" fill="#333333"/>
</svg>
