<svg width="29" height="26" viewBox="0 0 29 26" fill="none" xmlns="http://www.w3.org/2000/svg">
<path d="M1.66113 1.59961H25.6611" stroke="#333333" stroke-width="1.92" stroke-miterlimit="10" stroke-linecap="round" stroke-linejoin="round"/>
<path d="M8.86133 24.4004L13.6613 22.0004V18.4004" stroke="#333333" stroke-width="1.92" stroke-miterlimit="10" stroke-linecap="round" stroke-linejoin="round"/>
<path d="M18.4611 24.4L13.6611 22" stroke="#333333" stroke-width="1.92" stroke-miterlimit="10" stroke-linecap="round" stroke-linejoin="round"/>
<path fill-rule="evenodd" clip-rule="evenodd" d="M20.6608 19.5996H6.34161C4.06161 19.5996 2.86161 18.3996 2.84961 16.1196V1.59961H24.4496V11.604C21.7863 11.7148 19.6611 13.909 19.6611 16.5996C19.6611 17.7252 20.0331 18.7639 20.6608 19.5996ZM10.7813 11.3196C10.3837 11.3196 10.0613 11.642 10.0613 12.0396C10.0613 12.4373 10.3837 12.7596 10.7813 12.7596H16.5413C16.939 12.7596 17.2613 12.4373 17.2613 12.0396C17.2613 11.642 16.939 11.3196 16.5413 11.3196H10.7813ZM8.14133 9.15961C8.14133 8.76196 8.46368 8.43961 8.86133 8.43961H18.4613C18.859 8.43961 19.1813 8.76196 19.1813 9.15961C19.1813 9.55725 18.859 9.87961 18.4613 9.87961H8.86133C8.46368 9.87961 8.14133 9.55725 8.14133 9.15961Z" fill="#333333"/>
<path fill-rule="evenodd" clip-rule="evenodd" d="M28.3388 16.9312V16.2998C28.3388 15.9266 28.0339 15.6181 27.6571 15.6181C27.0078 15.6181 26.7423 15.1588 27.0687 14.5956C27.2553 14.2727 27.1441 13.8529 26.8176 13.6663L26.1969 13.3111C25.9135 13.1425 25.5475 13.243 25.3789 13.5264L25.3394 13.5946C25.0129 14.1578 24.482 14.1578 24.1591 13.5946L24.1196 13.5264C23.951 13.243 23.585 13.1425 23.3016 13.3111L22.6809 13.6663C22.3544 13.8529 22.2432 14.2691 22.4297 14.5956C22.7562 15.1588 22.4907 15.6181 21.8413 15.6181C21.4646 15.6181 21.1597 15.9266 21.1597 16.2998V16.9312C21.1597 17.3079 21.4682 17.6129 21.8413 17.6129C22.4907 17.6129 22.7562 18.0721 22.4297 18.6354C22.2432 18.9583 22.3544 19.3781 22.6809 19.5646L23.3016 19.9198C23.585 20.0885 23.951 19.988 24.1196 19.7046L24.1591 19.6364C24.4855 19.0731 25.0165 19.0731 25.3394 19.6364L25.3789 19.7046C25.5475 19.988 25.9135 20.0885 26.1969 19.9198L26.8176 19.5646C27.1441 19.3781 27.2553 18.9583 27.0687 18.6354C26.7423 18.0721 27.0078 17.6129 27.6571 17.6129C28.0339 17.6129 28.3388 17.3043 28.3388 16.9312ZM23.5736 16.6086C23.5736 15.9594 24.1 15.4331 24.7492 15.4331C25.3984 15.4331 25.9248 15.9594 25.9248 16.6086C25.9248 17.2579 25.3984 17.7842 24.7492 17.7842C24.1 17.7842 23.5736 17.2579 23.5736 16.6086Z" fill="#333333"/>
</svg>
