<svg width="24" height="24" viewBox="0 0 24 24" fill="none" xmlns="http://www.w3.org/2000/svg">
<path fill-rule="evenodd" clip-rule="evenodd" d="M15.8312 1.45312L11.1527 6.64769C10.747 7.04867 10.3413 7.83727 10.2602 8.41201L9.67873 12.4352C9.46238 13.8921 10.5036 14.9079 11.9775 14.7074L16.0478 14.1327C16.6157 14.0525 17.4136 13.6515 17.8328 13.2505L22.3051 8.79358V17.8099C22.3051 20.9266 19.7785 23.4531 16.6618 23.4531H5.94828C2.83161 23.4531 0.305054 20.9266 0.305054 17.8099V7.09635C0.305054 3.97968 2.83161 1.45312 5.94828 1.45312H15.8312Z" fill="#333333"/>
<path d="M18.8023 1.5462L12.5957 7.75285C12.3594 7.98914 12.1231 8.45385 12.0758 8.79254L11.7372 11.1634C11.6111 12.0219 12.2176 12.6205 13.0762 12.5023L15.447 12.1637C15.7778 12.1164 16.2425 11.8801 16.4867 11.6438L22.6933 5.43717C23.7645 4.36597 24.2686 3.12149 22.6933 1.5462C21.118 -0.0290909 19.8735 0.475002 18.8023 1.5462Z" fill="#333333"/>
</svg>
