<svg width="30" height="30" viewBox="0 0 30 30" fill="none" xmlns="http://www.w3.org/2000/svg">
<path d="M5 13V15.1818C5 20.5979 9.48366 25 15 25C20.5163 25 25 20.5979 25 15.1818V13" stroke="#DDDDDD" stroke-width="2" stroke-linecap="round" stroke-linejoin="round"/>
<path fill-rule="evenodd" clip-rule="evenodd" d="M15 22C18.8675 22 22 19.2156 22 15.7778V7.22222C22 3.78444 18.8675 1 15 1C11.1325 1 8 3.78444 8 7.22222V15.7778C8 19.2156 11.1325 22 15 22ZM18.1525 9.23072C16.1352 8.49406 13.938 8.49406 11.9207 9.23072C11.4343 9.40832 10.8961 9.15803 10.7185 8.67167C10.5409 8.18532 10.7912 7.64708 11.2775 7.46948C13.7102 6.58114 16.363 6.58114 18.7957 7.46948C19.2821 7.64708 19.5323 8.18532 19.3547 8.67167C19.1771 9.15803 18.6389 9.40832 18.1525 9.23072ZM12.8477 13.0038C14.185 12.6361 15.6007 12.6361 16.938 13.0038C17.4373 13.1411 17.9533 12.8477 18.0906 12.3485C18.2279 11.8493 17.9344 11.3332 17.4352 11.196C15.7725 10.7387 14.0132 10.7387 12.3505 11.196C11.8513 11.3332 11.5579 11.8493 11.6952 12.3485C11.8325 12.8477 12.3485 13.1411 12.8477 13.0038Z" fill="#DDDDDD"/>
<path d="M15 26L15 29" stroke="#DDDDDD" stroke-width="2" stroke-linecap="round" stroke-linejoin="round"/>
</svg>
