<svg width="22" height="23" viewBox="0 0 22 23" fill="none" xmlns="http://www.w3.org/2000/svg">
<path fill-rule="evenodd" clip-rule="evenodd" d="M10.9993 18.875C14.5793 18.875 17.4888 15.9656 17.4888 12.3856V6.97765C17.4888 3.39761 14.5793 0.488159 10.9993 0.488159C7.41922 0.488159 4.50977 3.39761 4.50977 6.97765V12.3856C4.50977 15.9656 7.41922 18.875 10.9993 18.875ZM13.525 7.22859C11.7914 6.59556 9.90339 6.59556 8.16984 7.22859C7.72096 7.39251 7.22419 7.1615 7.06028 6.71262C6.89636 6.26374 7.12737 5.76697 7.57625 5.60305C9.69314 4.83003 12.0017 4.83003 14.1185 5.60305C14.5674 5.76697 14.7984 6.26374 14.6345 6.71262C14.4706 7.1615 13.9738 7.39251 13.525 7.22859ZM9.09662 10.4944C10.2444 10.1788 11.4594 10.1788 12.6072 10.4944C13.0679 10.6212 13.5442 10.3503 13.6709 9.88958C13.7976 9.42881 13.5268 8.95257 13.066 8.82585C11.618 8.42764 10.0858 8.42764 8.63776 8.82585C8.17699 8.95257 7.90618 9.42881 8.03289 9.88958C8.15961 10.3503 8.63585 10.6212 9.09662 10.4944Z" fill="white"/>
<path d="M1.78516 9.13855V12.2968C1.78516 17.3861 5.91089 21.5118 11.0002 21.5118V21.5118C16.0896 21.5118 20.2153 17.3861 20.2153 12.2968V9.13855" stroke="white" stroke-width="1.73053" stroke-linecap="round"/>
</svg>
