<svg width="26" height="26" viewBox="0 0 26 26" fill="none" xmlns="http://www.w3.org/2000/svg">
<path fill-rule="evenodd" clip-rule="evenodd" d="M19.1875 7.24805C19.1875 8.09305 19.025 8.90555 18.7325 9.64221C18.6399 9.87561 18.5343 10.1024 18.4164 10.3216C16.2521 10.5978 14.3403 11.6902 13 13.2796C11.5258 11.5314 9.36024 10.3845 6.92779 10.2635C6.82224 10.0624 6.72691 9.85508 6.6425 9.64221C6.35 8.90555 6.1875 8.09305 6.1875 7.24805C6.1875 3.66221 9.10167 0.748047 12.6875 0.748047C16.2733 0.748047 19.1875 3.66221 19.1875 7.24805Z" fill="#333333"/>
<path fill-rule="evenodd" clip-rule="evenodd" d="M11.8451 22.4524C11.755 22.2666 11.6716 22.0769 11.595 21.8838C11.2125 20.9204 11 19.8579 11 18.7529C11 17.4289 11.3038 16.175 11.8454 15.057C10.6713 13.3635 8.71362 12.2529 6.5 12.2529C2.91417 12.2529 0 15.1671 0 18.7529C0 19.5979 0.1625 20.4104 0.455 21.1471C1.2025 23.0321 2.80583 24.4838 4.78833 25.0254C5.33 25.1771 5.90417 25.2529 6.5 25.2529C7.09583 25.2529 7.67 25.1771 8.21167 25.0254C9.70648 24.617 10.9857 23.6912 11.8451 22.4524Z" fill="#333333"/>
<path d="M26 18.7529C26 19.5979 25.8375 20.4104 25.545 21.1471C24.7975 23.0321 23.1942 24.4838 21.2117 25.0254C20.67 25.1771 20.0958 25.2529 19.5 25.2529C18.9042 25.2529 18.33 25.1771 17.7883 25.0254C15.8058 24.4838 14.2025 23.0321 13.455 21.1471C13.1625 20.4104 13 19.5979 13 18.7529C13 15.1671 15.9142 12.2529 19.5 12.2529C23.0858 12.2529 26 15.1671 26 18.7529Z" fill="#333333"/>
</svg>
