<svg width="20" height="18" viewBox="0 0 20 18" fill="none" xmlns="http://www.w3.org/2000/svg">
<path fill-rule="evenodd" clip-rule="evenodd" d="M5.18591 17.5988H14.8155C17.7044 17.5988 19.6304 16.1165 19.6304 12.6577V5.74C19.6304 2.28118 17.7044 0.798828 14.8155 0.798828H5.18591C2.29702 0.798828 0.371094 2.28118 0.371094 5.74V12.6577C0.371094 16.1165 2.29702 17.5988 5.18591 17.5988ZM14.946 6.96475C15.1482 6.7904 15.1707 6.48522 14.9963 6.28311C14.822 6.081 14.5168 6.05849 14.3147 6.23283L11.4171 8.73232L11.4169 8.73255C10.6445 9.39639 9.34814 9.39647 8.57563 8.73281L8.57507 8.73232L5.68736 6.23333C5.48553 6.05867 5.18031 6.08069 5.00564 6.28253C4.83098 6.48437 4.853 6.78958 5.05484 6.96425L7.94372 9.46425L7.94489 9.46526C9.07978 10.441 10.9124 10.441 12.0473 9.46526L12.0479 9.46475L14.946 6.96475Z" fill="#333333"/>
</svg>
