<svg width="22" height="25" viewBox="0 0 22 25" fill="none" xmlns="http://www.w3.org/2000/svg">
<path fill-rule="evenodd" clip-rule="evenodd" d="M0.309683 8.11453C2.8228 -2.71318 19.19 -2.70067 21.6904 8.12703C23.1574 14.4786 19.1262 19.855 15.5925 23.1808C13.0284 25.6064 8.97166 25.6064 6.39476 23.1808C2.87383 19.855 -1.15737 14.4661 0.309683 8.11453ZM6.55078 11.2532C6.55078 10.7354 6.97051 10.3157 7.48828 10.3157H10.0625V7.81595C10.0625 7.29819 10.4822 6.87845 11 6.87845C11.5178 6.87845 11.9375 7.29819 11.9375 7.81595V10.3157H14.5046C15.0224 10.3157 15.4421 10.7354 15.4421 11.2532C15.4421 11.7709 15.0224 12.1907 14.5046 12.1907H11.9375V14.6927C11.9375 15.2104 11.5178 15.6302 11 15.6302C10.4822 15.6302 10.0625 15.2104 10.0625 14.6927V12.1907H7.48828C6.97051 12.1907 6.55078 11.7709 6.55078 11.2532Z" fill="#333333"/>
</svg>
