<svg width="24" height="19" viewBox="0 0 24 19" fill="none" xmlns="http://www.w3.org/2000/svg">
<path fill-rule="evenodd" clip-rule="evenodd" d="M5.42673 19H13.5733C17.6337 19 19 17.8153 19 14.25V13.2225L21.1711 14.5419C22.7224 15.4907 24 14.9175 24 13.267V5.73602C24 4.08553 22.7224 3.5123 21.1711 4.4512L19 5.77068V4.75C19 1.18468 17.6465 0 13.5733 0H5.42673C1.35346 0 0 1.18468 0 4.75V14.25C0 16.6306 1.35346 19 5.42673 19ZM8.54059 4.51977C8.8954 4.38017 9.249 4.24104 9.60786 4.13028C9.65663 4.11857 9.70329 4.10458 9.74866 4.09098C9.81969 4.06968 9.88756 4.04933 9.95543 4.04017C10.2335 3.96507 10.7479 3.96507 10.9008 4.31051C11.0197 4.62568 11.0042 5.12231 10.9914 5.53244C10.9877 5.64999 10.9842 5.76044 10.9842 5.85747V13.5322C10.9842 13.6002 10.9868 13.6721 10.9894 13.7462C11.003 14.1302 11.0186 14.572 10.6923 14.8239C10.4281 15.0491 9.91372 15.0341 9.60786 14.914C9.27419 14.7938 9.26029 14.3883 9.26029 14.0579C9.16041 11.9599 9.16683 9.94804 9.17349 7.8619C9.17517 7.33454 9.17687 6.80243 9.17687 6.26299C9.12126 6.44321 8.16197 6.60842 8.00904 6.60842C7.52244 6.6685 7.06365 6.54835 7.00804 5.93257C6.93852 5.30177 7.3278 4.95633 7.87001 4.7761C8.09507 4.69506 8.31807 4.60732 8.54059 4.51977Z" fill="white"/>
</svg>
