<svg width="24" height="19" viewBox="0 0 24 19" fill="none" xmlns="http://www.w3.org/2000/svg">
<path fill-rule="evenodd" clip-rule="evenodd" d="M5.42673 19H13.5733C17.6337 19 19 17.8153 19 14.25V13.2225L21.1711 14.5419C22.7224 15.4907 24 14.9175 24 13.267V5.73602C24 4.08553 22.7224 3.5123 21.1711 4.4512L19 5.77068V4.75C19 1.18468 17.6465 0 13.5733 0H5.42673C1.35346 0 0 1.18468 0 4.75V14.25C0 16.6306 1.35346 19 5.42673 19ZM8.14728 5.92289C7.53498 5.93528 6.71603 5.95186 6.28049 5.61034C6.12712 5.487 6.05896 5.3174 6.05896 5.05529C6.076 4.82401 6.12712 4.59274 6.31457 4.43856C6.78123 4.05857 7.27628 4.03828 7.86454 4.01418C7.92072 4.01188 7.97776 4.00954 8.0357 4.00685C8.37114 3.99674 8.64789 3.9999 8.94298 4.00326C9.09761 4.00503 9.25727 4.00685 9.43305 4.00685C10.234 4.00685 11.2394 4.03769 12.0744 4.06853C12.756 4.09936 13.4888 4.31522 13.5229 5.02445C13.574 5.84161 12.8242 6.53543 12.2789 7.02881C12.0318 7.26009 11.7293 7.5222 11.4268 7.78431C11.1244 8.04641 10.8219 8.30852 10.5748 8.53979C12.3641 8.75565 14 9.55739 14 11.5309C14 13.5044 12.2278 15 9.79091 15C8.73438 15 7.30294 14.6916 6.51906 13.967C5.97376 13.489 5.66702 12.4714 6.58723 12.1785C7.18664 11.9887 7.70698 12.2638 8.19461 12.5217C8.2615 12.5571 8.32778 12.5921 8.39356 12.6256C9.22856 13.0881 10.1828 13.2269 11.069 12.7489C12.0914 12.1939 11.921 11.0684 11.0008 10.5904C10.6291 10.3926 10.1795 10.3301 9.73199 10.268C9.13306 10.1848 8.53782 10.1021 8.13794 9.69615C7.5165 9.04642 8.46187 8.22455 9.12385 7.64904C9.27873 7.5144 9.41809 7.39324 9.51825 7.29092C9.85907 6.98256 10.4214 6.45834 10.5066 6.14998C10.6198 5.86838 10.0988 5.89494 9.76254 5.91209C9.69376 5.91559 9.63272 5.9187 9.58642 5.9187H8.44468C8.35385 5.9187 8.25369 5.92073 8.14728 5.92289Z" fill="white"/>
</svg>
