<svg width="20" height="26" viewBox="0 0 20 26" fill="none" xmlns="http://www.w3.org/2000/svg">
<path d="M5.625 24.6113C8.4875 23.7988 11.5125 23.7988 14.375 24.6113" stroke="#333333" stroke-width="1.91495" stroke-linecap="round" stroke-linejoin="round"/>
<path fill-rule="evenodd" clip-rule="evenodd" d="M5.2375 20.5512V19.1012C2.3625 17.3637 0 13.9762 0 10.3762C0 4.1887 5.6875 -0.661304 12.1125 0.738696C14.9375 1.3637 17.4125 3.2387 18.7 5.8262C21.3125 11.0762 18.5625 16.6512 14.525 19.0887V20.5387C14.525 20.5673 14.5259 20.599 14.5268 20.6329C14.5375 21.0283 14.5568 21.7387 13.325 21.7387H6.4375C5.20578 21.7499 5.21786 21.3197 5.23375 20.7538C5.2356 20.6879 5.2375 20.6202 5.2375 20.5512ZM6.19406 8.00098C6.19406 8.39862 6.51642 8.72098 6.91406 8.72098H12.6741C13.0717 8.72098 13.3941 8.39862 13.3941 8.00098C13.3941 7.60333 13.0717 7.28098 12.6741 7.28098H6.91406C6.51642 7.28098 6.19406 7.60333 6.19406 8.00098ZM6.91406 11.721C6.51642 11.721 6.19406 11.3986 6.19406 11.001C6.19406 10.6033 6.51642 10.281 6.91406 10.281H12.6741C13.0717 10.281 13.3941 10.6033 13.3941 11.001C13.3941 11.3986 13.0717 11.721 12.6741 11.721H6.91406Z" fill="#333333"/>
</svg>
