<svg width="20" height="26" viewBox="0 0 20 26" fill="none" xmlns="http://www.w3.org/2000/svg">
<path d="M5.625 24.6094C8.4875 23.7969 11.5125 23.7969 14.375 24.6094" stroke="#333333" stroke-width="1.91495" stroke-linecap="round" stroke-linejoin="round"/>
<path fill-rule="evenodd" clip-rule="evenodd" d="M5.2375 19.0992V20.5492C5.2375 20.6183 5.2356 20.686 5.23375 20.7518C5.21786 21.3178 5.20578 21.7479 6.4375 21.7367H13.325C14.5568 21.7367 14.5375 21.0264 14.5268 20.6309C14.5259 20.597 14.525 20.5654 14.525 20.5367V19.0867C18.5625 16.6492 21.3125 11.0742 18.7 5.82424C17.4125 3.23674 14.9375 1.36174 12.1125 0.736743C5.6875 -0.663257 0 4.18674 0 10.3742C0 13.9742 2.3625 17.3617 5.2375 19.0992ZM10.6727 7.46263C10.9287 7.01755 10.7755 6.44917 10.3304 6.19312C9.88529 5.93708 9.31691 6.09033 9.06086 6.53541L7.73592 8.83859C7.48359 9.27168 7.35282 9.87352 7.67185 10.4255C7.9903 10.9765 8.57614 11.1642 9.07339 11.1642H10.1107L9.05899 13.0097C8.80475 13.4558 8.9603 14.0235 9.40642 14.2778C9.85254 14.532 10.4203 14.3765 10.6745 13.9303L11.9863 11.6286C12.2327 11.2047 12.3733 10.605 12.0571 10.0491C11.7382 9.48837 11.144 9.30477 10.6477 9.30477H9.61294L10.6727 7.46263Z" fill="#333333"/>
</svg>
