<svg width="26" height="24" viewBox="0 0 26 24" fill="none" xmlns="http://www.w3.org/2000/svg">
<path fill-rule="evenodd" clip-rule="evenodd" d="M19.0462 19.7828H14.2094L8.82844 23.362C8.03037 23.894 6.9542 23.3258 6.9542 22.3584V19.7828C3.3266 19.7828 0.908203 17.3644 0.908203 13.7368V6.48154C0.908203 2.85395 3.3266 0.435547 6.9542 0.435547H19.0462C22.6738 0.435547 25.0922 2.85395 25.0922 6.48154V13.7368C25.0922 17.3644 22.6738 19.7828 19.0462 19.7828ZM10.0858 7.80001C10.0858 6.18673 11.3865 4.8858 12.9999 4.8858C14.6133 4.8858 15.9141 6.18673 15.9141 7.80001C15.9141 9.07318 15.077 9.7451 14.5292 10.1195C14.2941 10.2819 14.1426 10.4097 14.0444 10.5413C13.9629 10.6507 13.9068 10.7772 13.9068 10.9802V11.2341C13.9068 11.735 13.5008 12.141 12.9999 12.141C12.4991 12.141 12.093 11.735 12.093 11.2341V10.9802C12.093 9.67806 12.95 9.00573 13.5004 8.62567L13.5042 8.62303L13.5042 8.62304C13.7281 8.47012 13.8746 8.34529 13.9686 8.21841C14.0474 8.11216 14.1003 7.99074 14.1003 7.80001C14.1003 7.18837 13.6115 6.6996 12.9999 6.6996C12.3884 6.6996 11.8996 7.18837 11.8996 7.80001C11.8996 8.30088 11.4935 8.70691 10.9927 8.70691C10.4918 8.70691 10.0858 8.30088 10.0858 7.80001ZM12.9949 13.2174C12.4941 13.2174 12.088 13.6235 12.088 14.1243C12.088 14.6252 12.4941 15.0312 12.9949 15.0312H13.0058C13.5067 15.0312 13.9127 14.6252 13.9127 14.1243C13.9127 13.6235 13.5067 13.2174 13.0058 13.2174H12.9949Z" fill="#333333"/>
</svg>
