<svg width="31" height="31" viewBox="0 0 31 31" fill="none" xmlns="http://www.w3.org/2000/svg">
<g filter="url(#filter0_d_561_15778)">
<path d="M7.75 14H10.25C12.75 14 14 12.75 14 10.25V7.75C14 5.25 12.75 4 10.25 4H7.75C5.25 4 4 5.25 4 7.75V10.25C4 12.75 5.25 14 7.75 14Z" fill="white"/>
<path d="M19.75 14H22.25C24.75 14 26 12.75 26 10.25V7.75C26 5.25 24.75 4 22.25 4H19.75C17.25 4 16 5.25 16 7.75V10.25C16 12.75 17.25 14 19.75 14Z" fill="white"/>
<path d="M19.75 26H22.25C24.75 26 26 24.75 26 22.25V19.75C26 17.25 24.75 16 22.25 16H19.75C17.25 16 16 17.25 16 19.75V22.25C16 24.75 17.25 26 19.75 26Z" fill="white"/>
<path d="M7.75 26H10.25C12.75 26 14 24.75 14 22.25V19.75C14 17.25 12.75 16 10.25 16H7.75C5.25 16 4 17.25 4 19.75V22.25C4 24.75 5.25 26 7.75 26Z" fill="white"/>
</g>
<defs>
<filter id="filter0_d_561_15778" x="3" y="3" width="28" height="28" filterUnits="userSpaceOnUse" color-interpolation-filters="sRGB">
<feFlood flood-opacity="0" result="BackgroundImageFix"/>
<feColorMatrix in="SourceAlpha" type="matrix" values="0 0 0 0 0 0 0 0 0 0 0 0 0 0 0 0 0 0 127 0" result="hardAlpha"/>
<feOffset dx="2" dy="2"/>
<feGaussianBlur stdDeviation="1.5"/>
<feComposite in2="hardAlpha" operator="out"/>
<feColorMatrix type="matrix" values="0 0 0 0 0 0 0 0 0 0 0 0 0 0 0 0 0 0 0.07 0"/>
<feBlend mode="normal" in2="BackgroundImageFix" result="effect1_dropShadow_561_15778"/>
<feBlend mode="normal" in="SourceGraphic" in2="effect1_dropShadow_561_15778" result="shape"/>
</filter>
</defs>
</svg>
