<svg width="26" height="25" viewBox="0 0 26 25" fill="none" xmlns="http://www.w3.org/2000/svg">
<path fill-rule="evenodd" clip-rule="evenodd" d="M0 11.3346V13.6654C0 15.0427 1.10445 16.1816 2.46877 16.1816C4.82059 16.1816 5.78211 17.8767 4.5997 19.9558C3.92404 21.1477 4.32684 22.6972 5.50924 23.3858L7.75712 24.6969C8.78361 25.3193 10.1089 24.9485 10.7196 23.9023L10.8626 23.6507C12.045 21.5715 13.968 21.5715 15.1374 23.6507L15.2804 23.9023C15.8911 24.9485 17.2164 25.3193 18.2429 24.6969L20.4908 23.3858C21.6732 22.6972 22.076 21.161 21.4003 19.9558C20.2179 17.8767 21.1794 16.1816 23.5312 16.1816C24.8956 16.1816 26 15.0427 26 13.6654V11.3346C26 9.94409 24.8826 8.81843 23.5312 8.81843C21.1794 8.81843 20.2179 7.12332 21.4003 5.04415C22.076 3.85228 21.6732 2.30284 20.4908 1.6142L18.2429 0.303136C17.2164 -0.319289 15.8911 0.0515174 15.2804 1.09772L15.1374 1.34934C13.955 3.4285 12.032 3.4285 10.8626 1.34934L10.7196 1.09772C10.1089 0.0515174 8.78361 -0.319289 7.75712 0.303136L5.50924 1.6142C4.32684 2.30284 3.92404 3.85228 4.5997 5.04415C5.78211 7.12332 4.82059 8.81843 2.46877 8.81843C1.10445 8.81843 0 9.95733 0 11.3346ZM16.5 12.75C16.5 14.8211 14.8211 16.5 12.75 16.5C10.6789 16.5 9 14.8211 9 12.75C9 10.6789 10.6789 9 12.75 9C14.8211 9 16.5 10.6789 16.5 12.75Z" fill="#333333"/>
</svg>
