<svg width="25" height="19" viewBox="0 0 25 19" fill="none" xmlns="http://www.w3.org/2000/svg">
<path d="M0 7.01059V11.8111C0 14.2113 1.20012 15.4114 3.60035 15.4114H5.31652C5.76057 15.4114 6.20461 15.5434 6.58865 15.7715L10.093 17.9677C13.1173 19.8639 15.6015 18.4837 15.6015 14.9194V3.90229C15.6015 0.325935 13.1173 -1.0422 10.093 0.853987L6.58865 3.0502C6.20461 3.27822 5.76057 3.41024 5.31652 3.41024H3.60035C1.20012 3.41024 0 4.61036 0 7.01059Z" fill="white" fill-opacity="0.4"/>
<path d="M19.2021 4.61072C21.3384 7.455 21.3384 11.3674 19.2021 14.2117" stroke="white" stroke-opacity="0.4" stroke-width="1.90382" stroke-linecap="round" stroke-linejoin="round"/>
<path d="M21.3989 1.60974C24.8673 6.2302 24.8673 12.5908 21.3989 17.2113" stroke="white" stroke-opacity="0.4" stroke-width="1.90382" stroke-linecap="round" stroke-linejoin="round"/>
</svg>
