<svg width="25" height="19" viewBox="0 0 25 19" fill="none" xmlns="http://www.w3.org/2000/svg">
<path d="M0 7.01102V11.8118C0 14.2122 1.20019 15.4124 3.60057 15.4124H5.31685C5.76092 15.4124 6.20499 15.5444 6.58905 15.7724L10.0936 17.9688C13.1181 19.8651 15.6025 18.4848 15.6025 14.9203V3.90252C15.6025 0.325955 13.1181 -1.04226 10.0936 0.854039L6.58905 3.05039C6.20499 3.27842 5.76092 3.41045 5.31685 3.41045H3.60057C1.20019 3.41045 0 4.61064 0 7.01102Z" fill="white"/>
<path d="M19.2031 4.61108C21.3395 7.45554 21.3395 11.3682 19.2031 14.2126" stroke="white" stroke-width="1.90382" stroke-linecap="round" stroke-linejoin="round"/>
<path d="M21.3999 1.60986C24.8685 6.2306 24.8685 12.5916 21.3999 17.2123" stroke="white" stroke-width="1.90382" stroke-linecap="round" stroke-linejoin="round"/>
</svg>
