<svg width="12" height="12" viewBox="0 0 12 12" fill="none" xmlns="http://www.w3.org/2000/svg">
<path d="M3.55324 6.7275C2.00616 6.7275 0.751994 5.47334 0.751994 3.92625C0.751994 2.37916 2.00616 1.125 3.55324 1.125C5.10033 1.125 6.35449 2.37916 6.35449 3.92625C6.35449 5.47334 5.10033 6.7275 3.55324 6.7275Z" fill="#533566"/>
<path d="M11.0083 10.9542C11.3196 10.6242 11.3308 10.1104 11.0383 9.76542L6.33583 4.25293L4.04458 6.68292L9.82333 11.0554C10.1833 11.3292 10.6971 11.2842 11.0083 10.9542Z" fill="#9B9B9B"/>
<path d="M4.87681 1.5015L1.14932 5.45776C0.901815 5.72026 0.913065 6.13275 1.17557 6.3765C1.43807 6.624 1.84681 6.61276 2.09431 6.35026L5.82181 2.39401C6.06931 2.13151 6.05806 1.72276 5.79556 1.47526C5.53307 1.22776 5.12431 1.239 4.87681 1.5015ZM6.21977 6.94839C6.21977 7.25284 6.46657 7.49964 6.77102 7.49964C7.07546 7.49964 7.32227 7.25284 7.32227 6.94839C7.32227 6.64394 7.07546 6.39714 6.77102 6.39714C6.46657 6.39714 6.21977 6.64394 6.21977 6.94839Z" fill="#BEBEBE"/>
</svg>
