<svg width="24" height="28" viewBox="0 0 24 28" fill="none" xmlns="http://www.w3.org/2000/svg">
<path d="M9.33268 6.4008H14.666C17.3327 6.4008 17.3327 5.0506 17.3327 3.7004C17.3327 1 15.9993 1 14.666 1H9.33268C7.99935 1 6.66602 1 6.66602 3.7004C6.66602 6.4008 7.99935 6.4008 9.33268 6.4008Z" stroke="#3A3A3A" stroke-width="1.875" stroke-miterlimit="10" stroke-linecap="round" stroke-linejoin="round"/>
<path fill-rule="evenodd" clip-rule="evenodd" d="M17.3333 3.72266C21.7733 3.96569 24 5.62644 24 11.7969V19.8981C24 25.2989 22.6667 27.9993 16 27.9993H8C1.33333 27.9993 0 25.2989 0 19.8981V11.7969C0 5.63994 2.22667 3.96569 6.66667 3.72266H17.3333ZM5.72913 14.7695C5.72913 14.2518 6.14886 13.832 6.66663 13.832H16C16.5177 13.832 16.9375 14.2518 16.9375 14.7695C16.9375 15.2873 16.5177 15.707 16 15.707H6.66663C6.14886 15.707 5.72913 15.2873 5.72913 14.7695ZM6.66663 19.2344C6.14886 19.2344 5.72913 19.6541 5.72913 20.1719C5.72913 20.6896 6.14886 21.1094 6.66663 21.1094H12.5066C13.0244 21.1094 13.4441 20.6896 13.4441 20.1719C13.4441 19.6541 13.0244 19.2344 12.5066 19.2344H6.66663Z" fill="#333333"/>
</svg>
