<svg width="24" height="24" viewBox="0 0 24 24" fill="none" xmlns="http://www.w3.org/2000/svg">
<path d="M23.9986 8.11453V2.88603C23.9986 0.828277 23.1703 0 21.1126 0H15.8841C13.8263 0 12.998 0.828277 12.998 2.88603V8.11453C12.998 10.1723 13.8263 11.0006 15.8841 11.0006H21.1126C23.1703 11.0006 23.9986 10.1723 23.9986 8.11453Z" fill="#333333"/>
<path d="M11.0006 8.44788V2.56546C11.0006 0.738542 10.1723 0 8.11453 0H2.88603C0.828277 0 0 0.738542 0 2.56546V8.43492C0 10.2748 0.828277 11.0004 2.88603 11.0004H8.11453C10.1723 11.0133 11.0006 10.2748 11.0006 8.44788Z" fill="#333333"/>
<path d="M11.0006 21.1126V15.8841C11.0006 13.8263 10.1723 12.998 8.11453 12.998H2.88603C0.828277 12.998 0 13.8263 0 15.8841V21.1126C0 23.1703 0.828277 23.9986 2.88603 23.9986H8.11453C10.1723 23.9986 11.0006 23.1703 11.0006 21.1126Z" fill="#333333"/>
<path d="M15 16H22.5004" stroke="#333333" stroke-width="2" stroke-linecap="round"/>
<path d="M15 21H22.5004" stroke="#333333" stroke-width="2" stroke-linecap="round"/>
</svg>
